<svg xmlns="http://www.w3.org/2000/svg" xmlns:xlink="http://www.w3.org/1999/xlink" zoomAndPan="magnify" preserveAspectRatio="xMidYMid meet" version="1.0" viewBox="243 243 324 324"><defs><clipPath id="id1"><path d="M 278.195312 365 L 436 365 L 436 486.644531 L 278.195312 486.644531 Z M 278.195312 365 " clip-rule="nonzero"/></clipPath><clipPath id="id2"><path d="M 361 323.144531 L 518.195312 323.144531 L 518.195312 445 L 361 445 Z M 361 323.144531 " clip-rule="nonzero"/></clipPath></defs><path fill="#232946" d="M 405 243 C 315.640625 243 243 315.707031 243 405 C 243 494.359375 315.640625 567 405 567 C 494.292969 567 567 494.359375 567 405 C 567 315.707031 494.292969 243 405 243 Z M 405 554.363281 C 322.640625 554.363281 255.636719 487.359375 255.636719 405 C 255.636719 322.640625 322.640625 255.636719 405 255.636719 C 487.359375 255.636719 554.363281 322.640625 554.363281 405 C 554.363281 487.359375 487.359375 554.363281 405 554.363281 Z M 405 554.363281 " fill-opacity="1" fill-rule="nonzero"/><path fill="#232946" d="M 405 264.058594 C 327.304688 264.058594 264.058594 327.304688 264.058594 405 C 264.058594 482.695312 327.304688 545.941406 405 545.941406 C 482.695312 545.941406 545.941406 482.695312 545.941406 405 C 545.941406 327.304688 482.695312 264.058594 405 264.058594 Z M 405 264.058594 " fill-opacity="1" fill-rule="nonzero"/><g clip-path="url(#id1)"><path fill="#fffffe" d="M 407.722656 370.261719 L 407.722656 365.746094 L 306.101562 365.746094 C 298.472656 365.746094 291.519531 368.851562 286.523438 373.847656 C 281.515625 378.84375 278.402344 385.789062 278.414062 393.414062 L 278.414062 435.679688 C 278.414062 442.085938 280.609375 448.019531 284.28125 452.707031 C 287.949219 457.394531 293.101562 460.875 299.042969 462.4375 L 300.191406 458.0625 L 296.277344 460.320312 L 308.582031 481.605469 C 309.519531 483.230469 310.875 484.53125 312.394531 485.371094 C 313.921875 486.21875 315.605469 486.625 317.277344 486.625 C 318.949219 486.625 320.640625 486.210938 322.160156 485.371094 C 323.6875 484.53125 325.042969 483.238281 325.972656 481.605469 L 336.523438 463.339844 L 407.722656 463.339844 C 415.355469 463.339844 422.304688 460.230469 427.304688 455.238281 C 432.3125 450.242188 435.414062 443.292969 435.414062 435.671875 L 435.414062 393.421875 C 435.414062 385.796875 432.304688 378.851562 427.304688 373.855469 C 422.304688 368.851562 415.355469 365.746094 407.722656 365.753906 L 407.722656 374.777344 C 412.886719 374.777344 417.523438 376.855469 420.914062 380.234375 C 424.292969 383.621094 426.375 388.253906 426.375 393.414062 L 426.375 435.679688 C 426.375 440.835938 424.292969 445.472656 420.914062 448.859375 C 417.523438 452.238281 412.886719 454.316406 407.722656 454.316406 L 331.308594 454.316406 L 318.144531 477.113281 C 318.019531 477.324219 317.910156 477.414062 317.773438 477.492188 C 317.636719 477.566406 317.457031 477.621094 317.269531 477.621094 C 317.078125 477.621094 316.90625 477.574219 316.761719 477.492188 C 316.625 477.414062 316.515625 477.324219 316.390625 477.113281 L 303.148438 454.199219 L 301.320312 453.71875 C 297.335938 452.671875 293.855469 450.332031 291.375 447.160156 C 288.898438 443.988281 287.433594 440.035156 287.425781 435.699219 L 287.425781 393.421875 C 287.425781 388.265625 289.503906 383.628906 292.886719 380.242188 C 296.277344 376.863281 300.914062 374.789062 306.074219 374.789062 L 407.707031 374.789062 L 407.707031 370.261719 " fill-opacity="1" fill-rule="nonzero"/></g><g clip-path="url(#id2)"><path fill="#ff8e3c" d="M 490.394531 323.136719 C 490.394531 323.136719 490.386719 323.136719 490.386719 323.136719 L 388.757812 323.136719 C 381.128906 323.136719 374.167969 326.242188 369.175781 331.238281 C 364.167969 336.234375 361.058594 343.179688 361.066406 350.804688 L 361.066406 365.746094 L 370.109375 365.746094 L 370.109375 350.804688 C 370.109375 345.644531 372.1875 341.011719 375.566406 337.625 C 378.957031 334.246094 383.59375 332.167969 388.757812 332.167969 L 490.386719 332.167969 C 495.550781 332.167969 500.1875 334.246094 503.578125 337.625 C 506.957031 341.011719 509.035156 345.644531 509.035156 350.804688 L 509.035156 393.078125 C 509.035156 397.414062 507.5625 401.371094 505.085938 404.542969 C 502.609375 407.714844 499.128906 410.050781 495.140625 411.101562 L 493.324219 411.578125 L 480.082031 434.496094 C 479.953125 434.703125 479.847656 434.792969 479.710938 434.875 C 479.574219 434.949219 479.394531 435.003906 479.203125 435.003906 C 479.015625 435.003906 478.832031 434.957031 478.699219 434.875 C 478.5625 434.792969 478.453125 434.703125 478.328125 434.496094 L 465.164062 411.714844 L 435.414062 411.714844 L 435.414062 420.746094 L 459.941406 420.746094 L 470.488281 439.011719 C 471.429688 440.640625 472.785156 441.941406 474.304688 442.78125 C 475.832031 443.621094 477.515625 444.035156 479.1875 444.035156 C 480.859375 444.035156 482.539062 443.621094 484.066406 442.78125 C 485.597656 441.941406 486.953125 440.648438 487.882812 439.011719 L 499.292969 419.277344 C 504.445312 417.523438 508.910156 414.296875 512.183594 410.105469 C 515.851562 405.417969 518.050781 399.484375 518.050781 393.078125 L 518.050781 350.804688 C 518.050781 343.179688 514.941406 336.234375 509.941406 331.238281 C 504.96875 326.242188 498.015625 323.136719 490.394531 323.136719 " fill-opacity="1" fill-rule="nonzero"/></g><path fill="#fffffe" d="M 435.421875 411.722656 L 430.902344 411.722656 C 428.40625 411.722656 426.382812 413.746094 426.382812 416.242188 C 426.382812 418.734375 428.40625 420.757812 430.902344 420.757812 L 435.421875 420.757812 L 435.421875 411.722656 M 370.097656 365.753906 L 361.058594 365.753906 L 361.058594 370.269531 C 361.058594 372.765625 363.082031 374.789062 365.578125 374.789062 C 368.074219 374.789062 370.097656 372.765625 370.097656 370.269531 L 370.097656 365.753906 " fill-opacity="1" fill-rule="nonzero"/></svg>