<svg xmlns="http://www.w3.org/2000/svg" xmlns:xlink="http://www.w3.org/1999/xlink" zoomAndPan="magnify" preserveAspectRatio="xMidYMid meet" version="1.0" viewBox="243 243 324 324"><defs><clipPath id="id1"><path d="M 316.625 469 L 337 469 L 337 475 L 316.625 475 Z M 316.625 469 " clip-rule="nonzero"/></clipPath><clipPath id="id2"><path d="M 316.625 441 L 337 441 L 337 447 L 316.625 447 Z M 316.625 441 " clip-rule="nonzero"/></clipPath><clipPath id="id3"><path d="M 316.625 413 L 337 413 L 337 420 L 316.625 420 Z M 316.625 413 " clip-rule="nonzero"/></clipPath><clipPath id="id4"><path d="M 316.625 386 L 337 386 L 337 392 L 316.625 392 Z M 316.625 386 " clip-rule="nonzero"/></clipPath><clipPath id="id5"><path d="M 316.625 358 L 337 358 L 337 365 L 316.625 365 Z M 316.625 358 " clip-rule="nonzero"/></clipPath><clipPath id="id6"><path d="M 316.625 331 L 337 331 L 337 337 L 316.625 337 Z M 316.625 331 " clip-rule="nonzero"/></clipPath><clipPath id="id7"><path d="M 316.625 320.800781 L 493.625 320.800781 L 493.625 489.550781 L 316.625 489.550781 Z M 316.625 320.800781 " clip-rule="nonzero"/></clipPath></defs><path fill="#232946" d="M 405 243 C 315.640625 243 243 315.707031 243 405 C 243 494.359375 315.640625 567 405 567 C 494.292969 567 567 494.359375 567 405 C 567 315.707031 494.292969 243 405 243 Z M 405 554.363281 C 322.640625 554.363281 255.636719 487.359375 255.636719 405 C 255.636719 322.640625 322.640625 255.636719 405 255.636719 C 487.359375 255.636719 554.363281 322.640625 554.363281 405 C 554.363281 487.359375 487.359375 554.363281 405 554.363281 Z M 405 554.363281 " fill-opacity="1" fill-rule="nonzero"/><path fill="#232946" d="M 405 264.058594 C 327.304688 264.058594 264.058594 327.304688 264.058594 405 C 264.058594 482.695312 327.304688 545.941406 405 545.941406 C 482.695312 545.941406 545.941406 482.695312 545.941406 405 C 545.941406 327.304688 482.695312 264.058594 405 264.058594 Z M 405 264.058594 " fill-opacity="1" fill-rule="nonzero"/><path fill="#ff8e3c" d="M 414.835938 473.628906 L 394.417969 473.628906 C 394.078125 473.628906 393.746094 473.5625 393.429688 473.433594 C 393.113281 473.300781 392.835938 473.113281 392.59375 472.871094 C 392.351562 472.628906 392.164062 472.347656 392.03125 472.03125 C 391.902344 471.714844 391.835938 471.386719 391.835938 471.042969 L 391.835938 413.78125 C 391.835938 413.4375 391.902344 413.109375 392.03125 412.789062 C 392.164062 412.472656 392.351562 412.195312 392.59375 411.953125 C 392.835938 411.710938 393.113281 411.523438 393.429688 411.390625 C 393.746094 411.261719 394.078125 411.195312 394.417969 411.195312 L 414.835938 411.195312 C 415.179688 411.195312 415.507812 411.261719 415.824219 411.390625 C 416.140625 411.523438 416.421875 411.710938 416.664062 411.953125 C 416.90625 412.195312 417.09375 412.472656 417.222656 412.789062 C 417.355469 413.109375 417.421875 413.4375 417.421875 413.78125 L 417.421875 471.042969 C 417.421875 471.386719 417.355469 471.714844 417.222656 472.03125 C 417.09375 472.347656 416.90625 472.628906 416.664062 472.871094 C 416.421875 473.113281 416.140625 473.300781 415.824219 473.433594 C 415.507812 473.5625 415.179688 473.628906 414.835938 473.628906 Z M 414.835938 473.628906 " fill-opacity="1" fill-rule="nonzero"/><path fill="#ff8e3c" d="M 486.980469 473.628906 L 466.585938 473.628906 C 466.242188 473.628906 465.910156 473.5625 465.59375 473.433594 C 465.277344 473.300781 465 473.113281 464.757812 472.871094 C 464.515625 472.628906 464.328125 472.347656 464.199219 472.03125 C 464.066406 471.714844 464 471.386719 464 471.042969 L 464 379.183594 C 464 378.839844 464.066406 378.507812 464.199219 378.191406 C 464.328125 377.875 464.515625 377.597656 464.757812 377.355469 C 465 377.113281 465.277344 376.925781 465.59375 376.792969 C 465.910156 376.664062 466.242188 376.597656 466.585938 376.597656 L 486.980469 376.597656 C 487.324219 376.597656 487.652344 376.664062 487.96875 376.792969 C 488.285156 376.925781 488.566406 377.113281 488.808594 377.355469 C 489.050781 377.597656 489.238281 377.875 489.367188 378.191406 C 489.5 378.507812 489.5625 378.839844 489.5625 379.183594 L 489.5625 471.042969 C 489.5625 471.386719 489.5 471.714844 489.367188 472.03125 C 489.238281 472.347656 489.050781 472.628906 488.808594 472.871094 C 488.566406 473.113281 488.285156 473.300781 487.96875 473.433594 C 487.652344 473.5625 487.324219 473.628906 486.980469 473.628906 Z M 486.980469 473.628906 " fill-opacity="1" fill-rule="nonzero"/><path fill="#fffffe" d="M 450.898438 473.628906 L 430.5 473.628906 C 430.164062 473.625 429.835938 473.554688 429.527344 473.421875 C 429.214844 473.285156 428.941406 473.097656 428.703125 472.855469 C 428.464844 472.613281 428.28125 472.335938 428.152344 472.023438 C 428.023438 471.710938 427.960938 471.382812 427.960938 471.042969 L 427.960938 433.363281 C 427.960938 433.019531 428.023438 432.691406 428.15625 432.375 C 428.289062 432.058594 428.472656 431.777344 428.714844 431.535156 C 428.957031 431.292969 429.238281 431.105469 429.554688 430.976562 C 429.871094 430.84375 430.199219 430.777344 430.542969 430.777344 L 450.898438 430.777344 C 451.242188 430.777344 451.570312 430.84375 451.886719 430.976562 C 452.203125 431.105469 452.484375 431.292969 452.726562 431.535156 C 452.96875 431.777344 453.152344 432.058594 453.285156 432.375 C 453.417969 432.691406 453.480469 433.019531 453.480469 433.363281 L 453.480469 471.042969 C 453.480469 471.386719 453.417969 471.714844 453.285156 472.03125 C 453.152344 472.347656 452.96875 472.628906 452.726562 472.871094 C 452.484375 473.113281 452.203125 473.300781 451.886719 473.433594 C 451.570312 473.5625 451.242188 473.628906 450.898438 473.628906 Z M 450.898438 473.628906 " fill-opacity="1" fill-rule="nonzero"/><path fill="#fffffe" d="M 378.753906 473.628906 L 358.335938 473.628906 C 357.996094 473.628906 357.664062 473.5625 357.347656 473.433594 C 357.03125 473.300781 356.753906 473.113281 356.511719 472.871094 C 356.269531 472.628906 356.082031 472.347656 355.949219 472.03125 C 355.820312 471.714844 355.753906 471.386719 355.753906 471.042969 L 355.753906 456.132812 C 355.753906 455.789062 355.820312 455.460938 355.949219 455.144531 C 356.082031 454.828125 356.269531 454.546875 356.511719 454.304688 C 356.753906 454.0625 357.03125 453.875 357.347656 453.746094 C 357.664062 453.613281 357.996094 453.546875 358.335938 453.546875 L 378.753906 453.546875 C 379.097656 453.546875 379.425781 453.613281 379.742188 453.746094 C 380.058594 453.875 380.339844 454.0625 380.582031 454.304688 C 380.824219 454.546875 381.011719 454.828125 381.140625 455.144531 C 381.273438 455.460938 381.335938 455.789062 381.339844 456.132812 L 381.339844 471.042969 C 381.335938 471.386719 381.273438 471.714844 381.140625 472.03125 C 381.011719 472.347656 380.824219 472.628906 380.582031 472.871094 C 380.339844 473.113281 380.058594 473.300781 379.742188 473.433594 C 379.425781 473.5625 379.097656 473.628906 378.753906 473.628906 Z M 378.753906 473.628906 " fill-opacity="1" fill-rule="nonzero"/><path fill="#ff8e3c" d="M 466.191406 363.796875 C 465.847656 363.796875 465.519531 363.730469 465.203125 363.597656 C 464.886719 363.46875 464.605469 363.28125 464.363281 363.039062 C 464.121094 362.796875 463.9375 362.515625 463.804688 362.199219 C 463.671875 361.882812 463.609375 361.554688 463.609375 361.210938 L 463.609375 335.855469 L 438.292969 335.855469 C 437.949219 335.855469 437.621094 335.792969 437.304688 335.660156 C 436.988281 335.53125 436.707031 335.34375 436.464844 335.101562 C 436.222656 334.859375 436.039062 334.578125 435.90625 334.261719 C 435.773438 333.945312 435.710938 333.613281 435.710938 333.273438 C 435.710938 332.929688 435.773438 332.601562 435.90625 332.28125 C 436.039062 331.964844 436.222656 331.6875 436.464844 331.445312 C 436.707031 331.203125 436.988281 331.015625 437.304688 330.882812 C 437.621094 330.753906 437.949219 330.6875 438.292969 330.6875 L 466.191406 330.6875 C 466.535156 330.6875 466.863281 330.753906 467.179688 330.882812 C 467.496094 331.015625 467.777344 331.203125 468.019531 331.445312 C 468.261719 331.6875 468.445312 331.964844 468.578125 332.28125 C 468.710938 332.601562 468.773438 332.929688 468.773438 333.273438 L 468.773438 361.210938 C 468.773438 361.554688 468.710938 361.882812 468.578125 362.199219 C 468.445312 362.515625 468.261719 362.796875 468.019531 363.039062 C 467.777344 363.28125 467.496094 363.46875 467.179688 363.597656 C 466.863281 363.730469 466.535156 363.796875 466.191406 363.796875 Z M 466.191406 363.796875 " fill-opacity="1" fill-rule="nonzero"/><path fill="#ff8e3c" d="M 346.929688 413.199219 C 346.414062 413.203125 345.941406 413.0625 345.511719 412.78125 C 345.082031 412.5 344.761719 412.125 344.554688 411.652344 C 344.351562 411.183594 344.289062 410.691406 344.375 410.183594 C 344.460938 409.679688 344.679688 409.234375 345.027344 408.859375 L 381.070312 369.9375 C 381.300781 369.648438 381.585938 369.433594 381.925781 369.285156 C 382.265625 369.140625 382.621094 369.082031 382.992188 369.109375 C 383.761719 369.128906 384.402344 369.425781 384.914062 370 L 404.710938 392.75 L 462.574219 332.777344 C 462.808594 332.507812 463.085938 332.296875 463.402344 332.144531 C 463.722656 331.992188 464.0625 331.90625 464.414062 331.890625 C 464.769531 331.878906 465.113281 331.933594 465.445312 332.058594 C 465.773438 332.1875 466.066406 332.375 466.324219 332.621094 C 466.578125 332.867188 466.773438 333.15625 466.90625 333.484375 C 467.042969 333.8125 467.109375 334.152344 467.105469 334.507812 C 467.101562 334.863281 467.027344 335.203125 466.882812 335.527344 C 466.738281 335.851562 466.535156 336.132812 466.273438 336.375 L 406.507812 398.414062 C 405.972656 398.933594 405.332031 399.195312 404.585938 399.199219 C 403.820312 399.1875 403.1875 398.890625 402.6875 398.3125 L 382.929688 375.5625 L 348.832031 412.375 C 348.316406 412.925781 347.683594 413.203125 346.929688 413.199219 Z M 346.929688 413.199219 " fill-opacity="1" fill-rule="nonzero"/><g clip-path="url(#id1)"><path fill="#fffffe" d="M 333.515625 474.226562 L 319.445312 474.226562 C 319.101562 474.226562 318.773438 474.164062 318.457031 474.03125 C 318.140625 473.898438 317.859375 473.714844 317.617188 473.472656 C 317.375 473.230469 317.1875 472.949219 317.058594 472.632812 C 316.925781 472.316406 316.859375 471.984375 316.859375 471.644531 C 316.859375 471.300781 316.925781 470.96875 317.058594 470.652344 C 317.1875 470.335938 317.375 470.058594 317.617188 469.816406 C 317.859375 469.574219 318.140625 469.386719 318.457031 469.253906 C 318.773438 469.125 319.101562 469.058594 319.445312 469.058594 L 333.515625 469.058594 C 333.859375 469.058594 334.191406 469.125 334.507812 469.253906 C 334.824219 469.386719 335.101562 469.574219 335.34375 469.816406 C 335.585938 470.058594 335.773438 470.335938 335.902344 470.652344 C 336.035156 470.96875 336.101562 471.300781 336.101562 471.644531 C 336.101562 471.984375 336.035156 472.316406 335.902344 472.632812 C 335.773438 472.949219 335.585938 473.230469 335.34375 473.472656 C 335.101562 473.714844 334.824219 473.898438 334.507812 474.03125 C 334.191406 474.164062 333.859375 474.226562 333.515625 474.226562 Z M 333.515625 474.226562 " fill-opacity="1" fill-rule="nonzero"/></g><g clip-path="url(#id2)"><path fill="#fffffe" d="M 333.515625 446.746094 L 319.445312 446.746094 C 319.101562 446.746094 318.773438 446.679688 318.457031 446.546875 C 318.140625 446.417969 317.859375 446.230469 317.617188 445.988281 C 317.375 445.746094 317.1875 445.464844 317.058594 445.148438 C 316.925781 444.832031 316.859375 444.503906 316.859375 444.160156 C 316.859375 443.816406 316.925781 443.488281 317.058594 443.171875 C 317.1875 442.851562 317.375 442.574219 317.617188 442.332031 C 317.859375 442.089844 318.140625 441.902344 318.457031 441.769531 C 318.773438 441.640625 319.101562 441.574219 319.445312 441.574219 L 333.515625 441.574219 C 333.859375 441.574219 334.191406 441.640625 334.507812 441.769531 C 334.824219 441.902344 335.101562 442.089844 335.34375 442.332031 C 335.585938 442.574219 335.773438 442.851562 335.902344 443.171875 C 336.035156 443.488281 336.101562 443.816406 336.101562 444.160156 C 336.101562 444.503906 336.035156 444.832031 335.902344 445.148438 C 335.773438 445.464844 335.585938 445.746094 335.34375 445.988281 C 335.101562 446.230469 334.824219 446.417969 334.507812 446.546875 C 334.191406 446.679688 333.859375 446.746094 333.515625 446.746094 Z M 333.515625 446.746094 " fill-opacity="1" fill-rule="nonzero"/></g><g clip-path="url(#id3)"><path fill="#fffffe" d="M 333.515625 419.136719 L 319.445312 419.136719 C 319.101562 419.136719 318.773438 419.070312 318.457031 418.941406 C 318.140625 418.808594 317.859375 418.621094 317.617188 418.378906 C 317.375 418.136719 317.1875 417.855469 317.058594 417.539062 C 316.925781 417.222656 316.859375 416.894531 316.859375 416.550781 C 316.859375 416.207031 316.925781 415.878906 317.058594 415.5625 C 317.1875 415.246094 317.375 414.964844 317.617188 414.722656 C 317.859375 414.480469 318.140625 414.292969 318.457031 414.164062 C 318.773438 414.03125 319.101562 413.964844 319.445312 413.964844 L 333.515625 413.964844 C 333.859375 413.964844 334.191406 414.03125 334.507812 414.164062 C 334.824219 414.292969 335.101562 414.480469 335.34375 414.722656 C 335.585938 414.964844 335.773438 415.246094 335.902344 415.5625 C 336.035156 415.878906 336.101562 416.207031 336.101562 416.550781 C 336.101562 416.894531 336.035156 417.222656 335.902344 417.539062 C 335.773438 417.855469 335.585938 418.136719 335.34375 418.378906 C 335.101562 418.621094 334.824219 418.808594 334.507812 418.941406 C 334.191406 419.070312 333.859375 419.136719 333.515625 419.136719 Z M 333.515625 419.136719 " fill-opacity="1" fill-rule="nonzero"/></g><g clip-path="url(#id4)"><path fill="#fffffe" d="M 333.515625 391.570312 L 319.445312 391.570312 C 319.101562 391.570312 318.773438 391.503906 318.457031 391.371094 C 318.140625 391.242188 317.859375 391.054688 317.617188 390.8125 C 317.375 390.570312 317.1875 390.289062 317.058594 389.972656 C 316.925781 389.65625 316.859375 389.328125 316.859375 388.984375 C 316.859375 388.640625 316.925781 388.3125 317.058594 387.996094 C 317.1875 387.679688 317.375 387.398438 317.617188 387.15625 C 317.859375 386.914062 318.140625 386.726562 318.457031 386.597656 C 318.773438 386.464844 319.101562 386.398438 319.445312 386.398438 L 333.515625 386.398438 C 333.859375 386.398438 334.191406 386.464844 334.507812 386.597656 C 334.824219 386.726562 335.101562 386.914062 335.34375 387.15625 C 335.585938 387.398438 335.773438 387.679688 335.902344 387.996094 C 336.035156 388.3125 336.101562 388.640625 336.101562 388.984375 C 336.101562 389.328125 336.035156 389.65625 335.902344 389.972656 C 335.773438 390.289062 335.585938 390.570312 335.34375 390.8125 C 335.101562 391.054688 334.824219 391.242188 334.507812 391.371094 C 334.191406 391.503906 333.859375 391.570312 333.515625 391.570312 Z M 333.515625 391.570312 " fill-opacity="1" fill-rule="nonzero"/></g><g clip-path="url(#id5)"><path fill="#fffffe" d="M 333.515625 364.023438 L 319.445312 364.023438 C 319.101562 364.023438 318.773438 363.957031 318.457031 363.828125 C 318.140625 363.695312 317.859375 363.507812 317.617188 363.265625 C 317.375 363.023438 317.1875 362.746094 317.058594 362.429688 C 316.925781 362.109375 316.859375 361.78125 316.859375 361.4375 C 316.859375 361.097656 316.925781 360.765625 317.058594 360.449219 C 317.1875 360.132812 317.375 359.851562 317.617188 359.609375 C 317.859375 359.367188 318.140625 359.179688 318.457031 359.050781 C 318.773438 358.917969 319.101562 358.855469 319.445312 358.855469 L 333.515625 358.855469 C 333.859375 358.855469 334.191406 358.917969 334.507812 359.050781 C 334.824219 359.179688 335.101562 359.367188 335.34375 359.609375 C 335.585938 359.851562 335.773438 360.132812 335.902344 360.449219 C 336.035156 360.765625 336.101562 361.097656 336.101562 361.4375 C 336.101562 361.78125 336.035156 362.109375 335.902344 362.429688 C 335.773438 362.746094 335.585938 363.023438 335.34375 363.265625 C 335.101562 363.507812 334.824219 363.695312 334.507812 363.828125 C 334.191406 363.957031 333.859375 364.023438 333.515625 364.023438 Z M 333.515625 364.023438 " fill-opacity="1" fill-rule="nonzero"/></g><g clip-path="url(#id6)"><path fill="#fffffe" d="M 333.515625 336.476562 L 319.445312 336.476562 C 319.101562 336.476562 318.773438 336.414062 318.457031 336.28125 C 318.140625 336.148438 317.859375 335.964844 317.617188 335.71875 C 317.375 335.476562 317.1875 335.199219 317.058594 334.882812 C 316.925781 334.566406 316.859375 334.234375 316.859375 333.894531 C 316.859375 333.550781 316.925781 333.21875 317.058594 332.902344 C 317.1875 332.585938 317.375 332.308594 317.617188 332.066406 C 317.859375 331.824219 318.140625 331.636719 318.457031 331.503906 C 318.773438 331.375 319.101562 331.308594 319.445312 331.308594 L 333.515625 331.308594 C 333.859375 331.308594 334.191406 331.375 334.507812 331.503906 C 334.824219 331.636719 335.101562 331.824219 335.34375 332.066406 C 335.585938 332.308594 335.773438 332.585938 335.902344 332.902344 C 336.035156 333.21875 336.101562 333.550781 336.101562 333.894531 C 336.101562 334.234375 336.035156 334.566406 335.902344 334.882812 C 335.773438 335.199219 335.585938 335.476562 335.34375 335.71875 C 335.101562 335.964844 334.824219 336.148438 334.507812 336.28125 C 334.191406 336.414062 333.859375 336.476562 333.515625 336.476562 Z M 333.515625 336.476562 " fill-opacity="1" fill-rule="nonzero"/></g><g clip-path="url(#id7)"><path fill="#fffffe" d="M 490.804688 489.511719 L 319.445312 489.511719 C 319.101562 489.511719 318.773438 489.445312 318.457031 489.3125 C 318.140625 489.183594 317.859375 488.996094 317.617188 488.753906 C 317.375 488.511719 317.1875 488.230469 317.058594 487.914062 C 316.925781 487.597656 316.859375 487.269531 316.859375 486.925781 L 316.859375 323.429688 C 316.859375 323.085938 316.925781 322.753906 317.058594 322.4375 C 317.1875 322.121094 317.375 321.84375 317.617188 321.601562 C 317.859375 321.355469 318.136719 321.171875 318.457031 321.039062 C 318.773438 320.90625 319.101562 320.84375 319.445312 320.84375 C 319.785156 320.84375 320.117188 320.90625 320.433594 321.039062 C 320.75 321.171875 321.027344 321.355469 321.269531 321.601562 C 321.511719 321.84375 321.699219 322.121094 321.832031 322.4375 C 321.960938 322.753906 322.027344 323.085938 322.027344 323.429688 L 322.027344 484.339844 L 490.804688 484.339844 C 491.148438 484.339844 491.476562 484.40625 491.792969 484.539062 C 492.109375 484.667969 492.386719 484.855469 492.632812 485.097656 C 492.875 485.339844 493.058594 485.621094 493.191406 485.9375 C 493.320312 486.253906 493.386719 486.582031 493.386719 486.925781 C 493.386719 487.269531 493.320312 487.597656 493.191406 487.914062 C 493.058594 488.230469 492.875 488.511719 492.632812 488.753906 C 492.386719 488.996094 492.109375 489.183594 491.792969 489.3125 C 491.476562 489.445312 491.148438 489.511719 490.804688 489.511719 Z M 490.804688 489.511719 " fill-opacity="1" fill-rule="nonzero"/></g></svg>