<svg xmlns="http://www.w3.org/2000/svg" xmlns:xlink="http://www.w3.org/1999/xlink" zoomAndPan="magnify" preserveAspectRatio="xMidYMid meet" version="1.0" viewBox="243 243 324 324"><defs><clipPath id="id1"><path d="M 303.78125 324.675781 L 506 324.675781 L 506 463 L 303.78125 463 Z M 303.78125 324.675781 " clip-rule="nonzero"/></clipPath><clipPath id="id2"><path d="M 446 475 L 474 475 L 474 503.175781 L 446 503.175781 Z M 446 475 " clip-rule="nonzero"/></clipPath><clipPath id="id3"><path d="M 368 475 L 396 475 L 396 503.175781 L 368 503.175781 Z M 368 475 " clip-rule="nonzero"/></clipPath><clipPath id="id4"><path d="M 423 398 L 507 398 L 507 485 L 423 485 Z M 423 398 " clip-rule="nonzero"/></clipPath><clipPath id="id5"><path d="M 422.578125 396.65625 L 486 378.390625 L 514.644531 477.847656 L 451.222656 496.113281 Z M 422.578125 396.65625 " clip-rule="nonzero"/></clipPath><clipPath id="id6"><path d="M 422.578125 396.65625 L 486 378.390625 L 514.644531 477.847656 L 451.222656 496.113281 Z M 422.578125 396.65625 " clip-rule="nonzero"/></clipPath><clipPath id="id7"><path d="M 422 378 L 515 378 L 515 497 L 422 497 Z M 422 378 " clip-rule="nonzero"/></clipPath><clipPath id="id8"><path d="M 422.578125 396.65625 L 486 378.390625 L 514.644531 477.847656 L 451.222656 496.113281 Z M 422.578125 396.65625 " clip-rule="nonzero"/></clipPath><clipPath id="id9"><path d="M 422.578125 396.65625 L 486 378.390625 L 514.644531 477.847656 L 451.222656 496.113281 Z M 422.578125 396.65625 " clip-rule="nonzero"/></clipPath></defs><path fill="#232946" d="M 405 243 C 315.640625 243 243 315.707031 243 405 C 243 494.359375 315.640625 567 405 567 C 494.292969 567 567 494.359375 567 405 C 567 315.707031 494.292969 243 405 243 Z M 405 554.363281 C 322.640625 554.363281 255.636719 487.359375 255.636719 405 C 255.636719 322.640625 322.640625 255.636719 405 255.636719 C 487.359375 255.636719 554.363281 322.640625 554.363281 405 C 554.363281 487.359375 487.359375 554.363281 405 554.363281 Z M 405 554.363281 " fill-opacity="1" fill-rule="nonzero"/><path fill="#232946" d="M 405 264.058594 C 327.304688 264.058594 264.058594 327.304688 264.058594 405 C 264.058594 482.695312 327.304688 545.941406 405 545.941406 C 482.695312 545.941406 545.941406 482.695312 545.941406 405 C 545.941406 327.304688 482.695312 264.058594 405 264.058594 Z M 405 264.058594 " fill-opacity="1" fill-rule="nonzero"/><path fill="#ff8e3c" d="M 416.910156 429.480469 C 417.066406 429.480469 417.222656 429.636719 417.378906 429.636719 C 418.011719 429.636719 418.640625 429.167969 418.953125 428.539062 L 422.886719 417.539062 C 423.203125 416.753906 422.730469 415.8125 421.941406 415.496094 C 421.15625 415.183594 420.210938 415.652344 419.898438 416.4375 L 415.964844 427.4375 C 415.652344 428.382812 416.121094 429.167969 416.910156 429.480469 Z M 416.910156 429.480469 " fill-opacity="1" fill-rule="nonzero"/><path fill="#ff8e3c" d="M 413.132812 405.753906 L 402.75 410.625 C 401.964844 410.941406 401.648438 412.039062 401.964844 412.824219 C 402.277344 413.453125 402.75 413.769531 403.378906 413.769531 C 403.539062 413.769531 403.851562 413.769531 404.007812 413.609375 L 414.390625 408.738281 C 415.179688 408.425781 415.492188 407.324219 415.179688 406.539062 C 414.863281 405.753906 413.921875 405.441406 413.132812 405.753906 Z M 413.132812 405.753906 " fill-opacity="1" fill-rule="nonzero"/><path fill="#ff8e3c" d="M 416.75 395.382812 C 417.066406 394.597656 416.59375 393.65625 415.808594 393.339844 L 404.953125 389.414062 C 404.167969 389.097656 403.222656 389.570312 402.910156 390.355469 C 402.59375 391.140625 403.066406 392.085938 403.851562 392.398438 L 414.707031 396.328125 C 414.863281 396.328125 415.019531 396.484375 415.335938 396.484375 C 415.964844 396.484375 416.4375 396.011719 416.75 395.382812 Z M 416.75 395.382812 " fill-opacity="1" fill-rule="nonzero"/><path fill="#ff8e3c" d="M 424.929688 388.785156 C 425.089844 388.785156 425.402344 388.785156 425.5625 388.628906 C 426.347656 388.3125 426.660156 387.214844 426.347656 386.425781 L 421.472656 375.898438 C 421.15625 375.113281 420.054688 374.800781 419.269531 375.113281 C 418.640625 375.429688 418.324219 376.527344 418.640625 377.3125 L 423.515625 387.839844 C 423.832031 388.3125 424.300781 388.785156 424.929688 388.785156 Z M 424.929688 388.785156 " fill-opacity="1" fill-rule="nonzero"/><path fill="#ff8e3c" d="M 437.359375 390.199219 C 437.988281 390.199219 438.617188 389.726562 438.933594 389.097656 L 442.863281 378.097656 C 443.179688 377.3125 442.707031 376.371094 441.921875 376.058594 C 441.132812 375.742188 440.191406 376.214844 439.875 377 L 435.941406 388 C 435.628906 388.785156 436.101562 389.726562 436.886719 390.042969 C 436.886719 390.199219 437.042969 390.199219 437.359375 390.199219 Z M 437.359375 390.199219 " fill-opacity="1" fill-rule="nonzero"/><path fill="#ff8e3c" d="M 444.910156 400.097656 C 445.066406 400.097656 445.382812 400.097656 445.539062 399.941406 L 455.921875 395.070312 C 456.707031 394.753906 457.023438 393.65625 456.707031 392.871094 C 456.394531 392.085938 455.292969 391.769531 454.503906 392.085938 L 444.125 396.957031 C 443.335938 397.269531 443.023438 398.371094 443.335938 399.15625 C 443.808594 399.625 444.4375 400.097656 444.910156 400.097656 Z M 444.910156 400.097656 " fill-opacity="1" fill-rule="nonzero"/><g clip-path="url(#id1)"><path fill="#ff8e3c" d="M 488.640625 355.472656 L 352.253906 355.472656 C 347.535156 333.316406 334.636719 331.902344 333.535156 331.746094 L 323.625 331.746094 C 322.050781 327.976562 318.433594 324.675781 314.027344 324.675781 C 308.367188 324.675781 303.804688 329.230469 303.804688 334.890625 C 303.804688 340.546875 308.367188 345.257812 314.027344 345.257812 C 318.433594 345.257812 322.050781 341.800781 323.625 338.03125 L 332.90625 338.03125 C 333.21875 338.03125 341.871094 340.703125 345.175781 358.773438 C 349.421875 382.8125 360.433594 443.152344 360.433594 443.152344 C 360.433594 449.90625 364.523438 462.164062 379.625 462.164062 L 437.832031 462.164062 L 435.472656 456.035156 L 379.46875 456.035156 C 373.019531 456.035156 370.1875 451.320312 368.929688 448.023438 C 379.15625 447.394531 407.15625 445.507812 431.851562 443.78125 L 429.652344 436.082031 C 404.480469 437.808594 376.636719 439.695312 367.671875 440.324219 C 365.625 430.109375 357.917969 386.742188 353.671875 363.171875 L 487.539062 363.171875 C 493.675781 363.171875 498.082031 368.199219 497.292969 374.328125 L 491.628906 420.523438 C 491.628906 420.683594 491.472656 421.625 490.84375 422.882812 L 497.765625 426.339844 C 499.023438 423.667969 499.339844 421.78125 499.339844 421.46875 L 505.160156 374.015625 C 506.261719 363.800781 499.023438 355.472656 488.640625 355.472656 Z M 488.640625 355.472656 " fill-opacity="1" fill-rule="nonzero"/></g><path fill="#ff8e3c" d="M 473.226562 439.378906 L 486.4375 434.195312 C 487.699219 433.722656 488.484375 432.625 488.484375 431.367188 C 488.484375 430.109375 487.855469 428.851562 486.753906 428.222656 L 431.066406 400.097656 C 429.964844 399.46875 428.550781 399.625 427.449219 400.570312 C 426.503906 401.355469 426.03125 402.769531 426.503906 404.027344 L 445.382812 464.835938 C 445.695312 466.09375 446.953125 467.035156 448.214844 467.191406 C 449.472656 467.347656 450.730469 466.5625 451.359375 465.464844 L 458.910156 451.007812 L 475.113281 472.535156 C 475.585938 473.164062 476.371094 473.632812 477.316406 473.792969 C 477.472656 473.792969 477.628906 473.792969 477.789062 473.792969 C 478.417969 473.792969 479.203125 473.632812 479.832031 473.164062 L 489.742188 465.464844 C 490.371094 464.992188 490.84375 464.207031 491 463.265625 C 491.160156 462.320312 490.84375 461.535156 490.371094 460.75 Z M 478.257812 465.933594 L 460.957031 442.996094 C 460.324219 442.207031 459.382812 441.738281 458.4375 441.738281 C 458.28125 441.738281 458.28125 441.738281 458.125 441.738281 C 457.023438 441.894531 456.078125 442.523438 455.449219 443.464844 L 449.15625 455.566406 L 434.84375 409.527344 L 477.15625 430.894531 L 466.777344 434.980469 C 465.832031 435.296875 465.046875 436.238281 464.886719 437.179688 C 464.574219 438.125 464.886719 439.222656 465.515625 440.007812 L 483.136719 462.320312 Z M 478.257812 465.933594 " fill-opacity="1" fill-rule="nonzero"/><g clip-path="url(#id2)"><path fill="#ff8e3c" d="M 459.855469 475.835938 C 452.460938 475.835938 446.324219 481.960938 446.324219 489.503906 C 446.324219 497.046875 452.460938 503.175781 459.855469 503.175781 C 467.246094 503.175781 473.382812 497.046875 473.382812 489.503906 C 473.382812 481.960938 467.246094 475.835938 459.855469 475.835938 Z M 459.855469 496.574219 C 455.921875 496.574219 452.773438 493.433594 452.773438 489.503906 C 452.773438 485.578125 455.921875 482.433594 459.855469 482.433594 C 463.785156 482.433594 466.933594 485.578125 466.933594 489.503906 C 466.933594 493.277344 463.785156 496.574219 459.855469 496.574219 Z M 459.855469 496.574219 " fill-opacity="1" fill-rule="nonzero"/></g><g clip-path="url(#id3)"><path fill="#ff8e3c" d="M 381.988281 475.835938 C 374.59375 475.835938 368.457031 481.960938 368.457031 489.503906 C 368.457031 497.046875 374.59375 503.175781 381.988281 503.175781 C 389.378906 503.175781 395.515625 497.046875 395.515625 489.503906 C 395.515625 481.960938 389.378906 475.835938 381.988281 475.835938 Z M 381.988281 496.574219 C 378.054688 496.574219 374.90625 493.433594 374.90625 489.503906 C 374.90625 485.578125 378.054688 482.433594 381.988281 482.433594 C 385.917969 482.433594 389.066406 485.578125 389.066406 489.503906 C 389.066406 493.277344 385.917969 496.574219 381.988281 496.574219 Z M 381.988281 496.574219 " fill-opacity="1" fill-rule="nonzero"/></g><g clip-path="url(#id4)"><g clip-path="url(#id5)"><g clip-path="url(#id6)"><path fill="#fffffe" d="M 501.78125 436.148438 L 423.835938 398.121094 L 446.058594 475.265625 L 458.859375 451.941406 L 489.386719 484.296875 L 506.175781 479.460938 L 472.871094 444.476562 Z M 501.78125 436.148438 " fill-opacity="1" fill-rule="evenodd"/></g></g></g><g clip-path="url(#id7)"><g clip-path="url(#id8)"><g clip-path="url(#id9)"><path stroke-linecap="square" transform="matrix(0.299921, -0.0863844, 0.0864392, 0.300111, 422.601534, 396.64998)" fill="none" stroke-linejoin="miter" d="M 208.752649 191.700459 L 2.495945 5.620334 L 2.50574 262.676414 L 62.599995 202.255412 L 127.895816 328.861899 L 183.874369 328.861022 L 112.358889 191.704481 Z M 208.752649 191.700459 " stroke="#000000" stroke-width="5" stroke-opacity="1" stroke-miterlimit="10"/></g></g></g></svg>