<svg xmlns="http://www.w3.org/2000/svg" xmlns:xlink="http://www.w3.org/1999/xlink" zoomAndPan="magnify" preserveAspectRatio="xMidYMid meet" version="1.0" viewBox="243 243 324 324"><defs><g/><clipPath id="id1"><path d="M 298.3125 299.707031 L 511.851562 299.707031 L 511.851562 510.316406 L 298.3125 510.316406 Z M 298.3125 299.707031 " clip-rule="nonzero"/></clipPath><clipPath id="id2"><path d="M 336.683594 325.617188 L 476.933594 325.617188 L 476.933594 424.617188 L 336.683594 424.617188 Z M 336.683594 325.617188 " clip-rule="nonzero"/></clipPath></defs><path fill="#232946" d="M 405 243 C 315.640625 243 243 315.707031 243 405 C 243 494.359375 315.640625 567 405 567 C 494.292969 567 567 494.359375 567 405 C 567 315.707031 494.292969 243 405 243 Z M 405 554.363281 C 322.640625 554.363281 255.636719 487.359375 255.636719 405 C 255.636719 322.640625 322.640625 255.636719 405 255.636719 C 487.359375 255.636719 554.363281 322.640625 554.363281 405 C 554.363281 487.359375 487.359375 554.363281 405 554.363281 Z M 405 554.363281 " fill-opacity="1" fill-rule="nonzero"/><path fill="#232946" d="M 405 264.058594 C 327.304688 264.058594 264.058594 327.304688 264.058594 405 C 264.058594 482.695312 327.304688 545.941406 405 545.941406 C 482.695312 545.941406 545.941406 482.695312 545.941406 405 C 545.941406 327.304688 482.695312 264.058594 405 264.058594 Z M 405 264.058594 " fill-opacity="1" fill-rule="nonzero"/><path fill="#fffffe" d="M 369.515625 375.558594 L 365.167969 385.753906 L 374.09375 385.753906 L 370.019531 375.558594 L 369.515625 375.558594 " fill-opacity="1" fill-rule="nonzero"/><g clip-path="url(#id1)"><path fill="#fffffe" d="M 491.855469 490.117188 C 491.855469 492.351562 490.042969 494.164062 487.808594 494.164062 C 485.585938 494.164062 483.773438 492.351562 483.773438 490.117188 C 483.773438 487.894531 485.585938 486.082031 487.808594 486.082031 C 490.042969 486.082031 491.855469 487.894531 491.855469 490.117188 Z M 460.453125 371.730469 C 460.453125 372.75 459.6875 373.515625 458.667969 373.515625 L 453.816406 373.515625 L 453.816406 391.886719 L 458.667969 391.886719 C 459.6875 391.886719 460.453125 392.652344 460.453125 393.671875 L 460.453125 398.769531 C 460.453125 399.792969 459.6875 400.554688 458.667969 400.554688 L 437.746094 400.554688 C 436.738281 400.554688 435.960938 399.792969 435.960938 398.769531 L 435.960938 393.671875 C 435.960938 392.652344 436.738281 391.886719 437.746094 391.886719 L 442.597656 391.886719 L 442.597656 373.515625 L 437.746094 373.515625 C 436.738281 373.515625 435.960938 372.75 435.960938 371.730469 L 435.960938 366.632812 C 435.960938 365.609375 436.738281 364.847656 437.746094 364.847656 L 458.667969 364.847656 C 459.6875 364.847656 460.453125 365.609375 460.453125 366.632812 Z M 458.175781 447.769531 C 458.175781 449.992188 456.351562 451.816406 454.128906 451.816406 C 451.894531 451.816406 450.082031 449.992188 450.082031 447.769531 C 450.082031 445.535156 451.894531 443.722656 454.128906 443.722656 C 456.351562 443.722656 458.175781 445.535156 458.175781 447.769531 Z M 445.8125 487.992188 C 445.8125 490.226562 444 492.039062 441.765625 492.039062 C 439.53125 492.039062 437.71875 490.226562 437.71875 487.992188 C 437.71875 485.757812 439.53125 483.945312 441.765625 483.945312 C 444 483.945312 445.8125 485.757812 445.8125 487.992188 Z M 415.3125 390.867188 L 406.902344 390.867188 L 406.902344 398.769531 C 406.902344 399.792969 406.125 400.554688 405.117188 400.554688 L 397.457031 400.554688 C 396.433594 400.554688 395.671875 399.792969 395.671875 398.769531 L 395.671875 366.632812 C 395.671875 365.609375 396.433594 364.847656 397.457031 364.847656 L 415.3125 364.847656 C 427.292969 364.847656 432.90625 370.460938 432.90625 377.847656 C 432.90625 385.25 427.292969 390.867188 415.3125 390.867188 Z M 408.671875 438.925781 C 408.671875 441.160156 406.859375 442.972656 404.625 442.972656 C 402.390625 442.972656 400.578125 441.160156 400.578125 438.925781 C 400.578125 436.703125 402.390625 434.890625 404.625 434.890625 C 406.859375 434.890625 408.671875 436.703125 408.671875 438.925781 Z M 420.722656 503.230469 C 420.722656 505.453125 418.910156 507.277344 416.675781 507.277344 C 414.453125 507.277344 412.625 505.453125 412.625 503.230469 C 412.625 500.996094 414.453125 499.179688 416.675781 499.179688 C 418.910156 499.179688 420.722656 500.996094 420.722656 503.230469 Z M 408.671875 478.234375 C 408.671875 480.46875 406.859375 482.28125 404.625 482.28125 C 402.390625 482.28125 400.578125 480.46875 400.578125 478.234375 C 400.578125 476.011719 402.390625 474.199219 404.625 474.199219 C 406.859375 474.199219 408.671875 476.011719 408.671875 478.234375 Z M 396.378906 503.230469 C 396.378906 505.453125 394.566406 507.277344 392.332031 507.277344 C 390.109375 507.277344 388.285156 505.453125 388.285156 503.230469 C 388.285156 500.996094 390.109375 499.179688 392.332031 499.179688 C 394.566406 499.179688 396.378906 500.996094 396.378906 503.230469 Z M 390.421875 400.554688 L 381.753906 400.554688 C 380.734375 400.554688 379.859375 399.792969 379.453125 398.769531 L 377.667969 394.175781 L 361.609375 394.175781 L 359.824219 398.769531 C 359.417969 399.792969 358.542969 400.554688 357.523438 400.554688 L 349.355469 400.554688 C 348.347656 400.554688 347.625 399.792969 348.089844 398.769531 L 362.375 366.632812 C 362.824219 365.609375 363.640625 364.847656 364.664062 364.847656 L 375.117188 364.847656 C 376.140625 364.847656 376.957031 365.554688 377.421875 366.578125 L 391.703125 398.769531 C 392.15625 399.792969 391.445312 400.554688 390.421875 400.554688 Z M 371.667969 438.925781 C 371.667969 441.160156 369.84375 442.972656 367.621094 442.972656 C 365.386719 442.972656 363.574219 441.160156 363.574219 438.925781 C 363.574219 436.703125 365.386719 434.890625 367.621094 434.890625 C 369.84375 434.890625 371.667969 436.703125 371.667969 438.925781 Z M 372.199219 492.257812 C 372.199219 494.492188 370.386719 496.304688 368.167969 496.304688 C 365.929688 496.304688 364.117188 494.492188 364.117188 492.257812 C 364.117188 490.023438 365.929688 488.210938 368.167969 488.210938 C 370.386719 488.210938 372.199219 490.023438 372.199219 492.257812 Z M 347.257812 503.230469 C 347.257812 505.453125 345.445312 507.277344 343.222656 507.277344 C 340.988281 507.277344 339.175781 505.453125 339.175781 503.230469 C 339.175781 500.996094 340.988281 499.179688 343.222656 499.179688 C 345.445312 499.179688 347.257812 500.996094 347.257812 503.230469 Z M 469.339844 426.507812 C 492.78125 426.507812 511.851562 407.4375 511.851562 383.996094 C 511.851562 362.898438 496.40625 345.339844 476.234375 342.03125 C 472.597656 318.09375 451.867188 299.695312 426.921875 299.695312 C 409.65625 299.695312 394.007812 308.527344 385 322.566406 C 381.535156 321.613281 377.953125 321.121094 374.3125 321.121094 C 354.25 321.121094 337.582031 335.949219 334.691406 355.222656 C 334.445312 355.210938 334.203125 355.210938 333.96875 355.210938 C 314.300781 355.210938 298.3125 371.199219 298.3125 390.867188 C 298.3125 410.519531 314.300781 426.507812 333.96875 426.507812 L 353.734375 426.507812 L 353.734375 475.480469 L 341.699219 487.515625 L 341.699219 496.304688 C 338.507812 497 336.121094 499.835938 336.121094 503.230469 C 336.121094 507.140625 339.3125 510.316406 343.222656 510.316406 C 347.136719 510.316406 350.3125 507.140625 350.3125 503.230469 C 350.3125 499.835938 347.925781 497 344.738281 496.304688 L 344.738281 488.78125 L 356.785156 476.734375 L 356.785156 426.507812 L 366.09375 426.507812 L 366.09375 432 C 362.917969 432.695312 360.519531 435.542969 360.519531 438.925781 C 360.519531 442.835938 363.710938 446.023438 367.621094 446.023438 C 371.53125 446.023438 374.707031 442.835938 374.707031 438.925781 C 374.707031 435.542969 372.324219 432.695312 369.148438 432 L 369.148438 426.507812 L 378.457031 426.507812 L 378.457031 447.128906 L 366.640625 458.945312 L 366.640625 485.332031 C 363.449219 486.027344 361.066406 488.863281 361.066406 492.257812 C 361.066406 496.167969 364.253906 499.34375 368.167969 499.34375 C 372.0625 499.34375 375.253906 496.167969 375.253906 492.257812 C 375.253906 488.863281 372.867188 486.027344 369.679688 485.332031 L 369.679688 460.214844 L 381.496094 448.398438 L 381.496094 426.507812 L 390.804688 426.507812 L 390.804688 496.304688 C 387.628906 497 385.246094 499.835938 385.246094 503.230469 C 385.246094 507.140625 388.421875 510.316406 392.332031 510.316406 C 396.242188 510.316406 399.433594 507.140625 399.433594 503.230469 C 399.433594 499.835938 397.035156 497 393.859375 496.304688 L 393.859375 426.507812 L 403.167969 426.507812 L 403.167969 431.988281 C 399.949219 432.65625 397.539062 435.515625 397.539062 438.925781 C 397.539062 442.835938 400.714844 446.023438 404.625 446.023438 C 408.539062 446.023438 411.714844 442.835938 411.714844 438.925781 C 411.714844 435.570312 409.367188 432.734375 406.21875 432.015625 L 406.21875 426.507812 L 415.53125 426.507812 L 415.53125 451.707031 L 403.097656 464.125 L 403.097656 471.308594 C 399.921875 472.015625 397.539062 474.851562 397.539062 478.234375 C 397.539062 482.144531 400.714844 485.332031 404.625 485.332031 C 408.539062 485.332031 411.714844 482.144531 411.714844 478.234375 C 411.714844 474.851562 409.328125 472.015625 406.152344 471.308594 L 406.152344 465.394531 L 418.570312 452.960938 L 418.570312 426.507812 L 427.890625 426.507812 L 427.890625 466.332031 L 415.148438 479.0625 L 415.148438 496.304688 C 411.972656 497 409.585938 499.835938 409.585938 503.230469 C 409.585938 507.140625 412.761719 510.316406 416.675781 510.316406 C 420.585938 510.316406 423.773438 507.140625 423.773438 503.230469 C 423.773438 499.835938 421.375 497 418.199219 496.304688 L 418.199219 480.332031 L 430.929688 467.601562 L 430.929688 426.507812 L 440.238281 426.507812 L 440.238281 481.066406 C 437.0625 481.761719 434.679688 484.597656 434.679688 487.992188 C 434.679688 491.902344 437.855469 495.078125 441.765625 495.078125 C 445.679688 495.078125 448.855469 491.902344 448.855469 487.992188 C 448.855469 484.597656 446.46875 481.761719 443.292969 481.066406 L 443.292969 426.507812 L 452.601562 426.507812 L 452.601562 440.847656 C 449.425781 441.539062 447.027344 444.375 447.027344 447.769531 C 447.027344 451.679688 450.214844 454.855469 454.128906 454.855469 C 458.039062 454.855469 461.214844 451.679688 461.214844 447.769531 C 461.214844 444.375 458.832031 441.539062 455.640625 440.847656 L 455.640625 426.507812 L 464.964844 426.507812 L 464.964844 448.398438 L 486.292969 469.726562 L 486.292969 483.195312 C 483.105469 483.890625 480.71875 486.738281 480.71875 490.117188 C 480.71875 494.03125 483.894531 497.21875 487.808594 497.21875 C 491.71875 497.21875 494.910156 494.03125 494.910156 490.117188 C 494.910156 486.738281 492.523438 483.890625 489.332031 483.195312 L 489.332031 468.460938 L 468.003906 447.128906 L 468.003906 426.507812 L 469.339844 426.507812 " fill-opacity="1" fill-rule="nonzero"/></g><path fill="#fffffe" d="M 415.3125 373.011719 L 406.902344 373.011719 L 406.902344 382.699219 L 415.3125 382.699219 C 419.140625 382.699219 421.171875 380.65625 421.171875 377.847656 C 421.171875 375.054688 419.140625 373.011719 415.3125 373.011719 " fill-opacity="1" fill-rule="nonzero"/><g clip-path="url(#id2)"><path fill="#fffffe" d="M 406.808594 325.617188 C 368.078125 325.617188 336.683594 347.78125 336.683594 375.117188 C 336.683594 402.457031 368.078125 424.617188 406.808594 424.617188 C 445.535156 424.617188 476.929688 402.457031 476.929688 375.117188 C 476.929688 347.78125 445.535156 325.617188 406.808594 325.617188 " fill-opacity="1" fill-rule="nonzero"/></g><g fill="#ff8e3c" fill-opacity="1"><g transform="translate(368.67772, 394.8)"><g><path d="M 11.660156 -28.667969 L 0.324219 0 L 7.734375 0 L 9.3125 -4.171875 L 18.992188 -4.171875 L 20.570312 0 L 28.386719 0 L 16.601562 -28.667969 Z M 14.171875 -17.25 L 16.359375 -11.09375 L 16.519531 -10.609375 L 11.824219 -10.609375 L 12.066406 -11.257812 Z M 14.171875 -17.25 "/></g></g></g><g fill="#ff8e3c" fill-opacity="1"><g transform="translate(397.019527, 394.8)"><g><path d="M 13.484375 -28.585938 L 2.023438 -28.585938 L 2.023438 0 L 8.949219 0 L 8.949219 -8.421875 L 13.484375 -8.421875 C 20.125 -8.421875 23.445312 -13.484375 23.445312 -18.464844 C 23.445312 -23.445312 20.125 -28.585938 13.484375 -28.585938 Z M 13.484375 -14.941406 L 8.949219 -14.941406 L 8.949219 -21.867188 L 13.484375 -21.867188 C 15.628906 -21.867188 16.683594 -20.042969 16.683594 -18.34375 C 16.683594 -16.683594 15.628906 -14.941406 13.484375 -14.941406 Z M 13.484375 -14.941406 "/></g></g></g><g fill="#ff8e3c" fill-opacity="1"><g transform="translate(421.717387, 394.8)"><g><path d="M 18.058594 0 L 18.058594 -6.195312 L 13.363281 -6.195312 L 13.363281 -22.191406 L 18.058594 -22.191406 L 18.058594 -28.507812 L 1.742188 -28.507812 L 1.742188 -22.191406 L 6.4375 -22.191406 L 6.4375 -6.195312 L 1.742188 -6.195312 L 1.742188 0 Z M 18.058594 0 "/></g></g></g></svg>