<svg xmlns="http://www.w3.org/2000/svg" xmlns:xlink="http://www.w3.org/1999/xlink" zoomAndPan="magnify" preserveAspectRatio="xMidYMid meet" version="1.0" viewBox="243 243 324 324"><defs><g/><clipPath id="id1"><path d="M 413 421 L 496.988281 421 L 496.988281 505.578125 L 413 505.578125 Z M 413 421 " clip-rule="nonzero"/></clipPath><clipPath id="id2"><path d="M 313.238281 304.578125 L 474 304.578125 L 474 465 L 313.238281 465 Z M 313.238281 304.578125 " clip-rule="nonzero"/></clipPath><clipPath id="id3"><path d="M 323.414062 348.03125 L 462.914062 348.03125 L 462.914062 413.28125 L 323.414062 413.28125 Z M 323.414062 348.03125 " clip-rule="nonzero"/></clipPath><clipPath id="id4"><path d="M 313.238281 357.351562 L 359.738281 357.351562 L 359.738281 403.851562 L 313.238281 403.851562 Z M 313.238281 357.351562 " clip-rule="nonzero"/></clipPath><clipPath id="id5"><path d="M 422.617188 358.464844 L 469.117188 358.464844 L 469.117188 413.214844 L 422.617188 413.214844 Z M 422.617188 358.464844 " clip-rule="nonzero"/></clipPath></defs><path fill="#232946" d="M 405 243 C 315.640625 243 243 315.707031 243 405 C 243 494.359375 315.640625 567 405 567 C 494.292969 567 567 494.359375 567 405 C 567 315.707031 494.292969 243 405 243 Z M 405 554.363281 C 322.640625 554.363281 255.636719 487.359375 255.636719 405 C 255.636719 322.640625 322.640625 255.636719 405 255.636719 C 487.359375 255.636719 554.363281 322.640625 554.363281 405 C 554.363281 487.359375 487.359375 554.363281 405 554.363281 Z M 405 554.363281 " fill-opacity="1" fill-rule="nonzero"/><path fill="#232946" d="M 405 264.058594 C 327.304688 264.058594 264.058594 327.304688 264.058594 405 C 264.058594 482.695312 327.304688 545.941406 405 545.941406 C 482.695312 545.941406 545.941406 482.695312 545.941406 405 C 545.941406 327.304688 482.695312 264.058594 405 264.058594 Z M 405 264.058594 " fill-opacity="1" fill-rule="nonzero"/><g clip-path="url(#id1)"><path fill="#fffffe" d="M 413.195312 421.851562 L 437.199219 492.550781 L 451.300781 471.460938 C 451.664062 470.917969 452.261719 470.578125 452.917969 470.546875 C 452.949219 470.546875 452.980469 470.546875 453.015625 470.546875 C 453.632812 470.546875 454.21875 470.824219 454.613281 471.304688 L 482.589844 505.578125 L 496.960938 491.214844 L 462.671875 463.246094 C 462.164062 462.835938 461.886719 462.203125 461.914062 461.550781 C 461.945312 460.898438 462.285156 460.300781 462.828125 459.9375 L 483.929688 445.84375 L 457.714844 436.953125 L 457.710938 436.953125 L 413.195312 421.851562 " fill-opacity="1" fill-rule="nonzero"/></g><g clip-path="url(#id2)"><path fill="#fffffe" d="M 396.355469 385.875 L 396.355469 369.042969 C 396.355469 367.90625 397.28125 366.980469 398.417969 366.980469 L 406.863281 366.980469 C 408 366.980469 408.925781 367.90625 408.925781 369.042969 L 408.925781 385.703125 C 408.925781 387.273438 409.238281 388.410156 409.855469 389.082031 C 410.230469 389.488281 410.894531 390.023438 412.390625 390.023438 C 413.90625 390.023438 414.578125 389.507812 414.953125 389.117188 C 415.550781 388.492188 415.855469 387.414062 415.855469 385.917969 L 415.855469 369.042969 C 415.855469 367.90625 416.777344 366.980469 417.917969 366.980469 L 426.359375 366.980469 C 427.5 366.980469 428.421875 367.90625 428.421875 369.042969 L 428.421875 385.664062 C 428.421875 390.917969 426.953125 394.945312 424.058594 397.640625 C 421.203125 400.296875 417.25 401.644531 412.304688 401.644531 C 407.382812 401.644531 403.460938 400.304688 400.648438 397.65625 C 397.800781 394.976562 396.355469 391.015625 396.355469 385.875 Z M 394.140625 364.277344 L 383.453125 405.855469 C 383.226562 406.738281 382.445312 407.371094 381.535156 407.40625 L 375.339844 407.640625 C 375.3125 407.640625 375.285156 407.640625 375.261719 407.640625 C 374.640625 407.640625 374.050781 407.359375 373.660156 406.878906 C 373.25 406.371094 373.101562 405.707031 373.261719 405.078125 L 383.675781 363.507812 C 383.898438 362.617188 384.683594 361.980469 385.601562 361.949219 L 392.066406 361.703125 C 392.707031 361.652344 393.339844 361.964844 393.75 362.472656 C 394.15625 362.980469 394.304688 363.648438 394.140625 364.277344 Z M 371.210938 399.027344 C 371.210938 400.164062 370.289062 401.085938 369.148438 401.085938 L 360.796875 401.085938 C 359.65625 401.085938 358.734375 400.164062 358.734375 399.027344 L 358.734375 369.042969 C 358.734375 367.90625 359.65625 366.980469 360.796875 366.980469 L 369.148438 366.980469 C 370.289062 366.980469 371.210938 367.90625 371.210938 369.042969 Z M 355.960938 385.664062 C 355.960938 390.917969 354.492188 394.945312 351.597656 397.640625 C 348.742188 400.296875 344.785156 401.644531 339.84375 401.644531 C 334.917969 401.644531 331 400.304688 328.1875 397.65625 C 325.339844 394.976562 323.894531 391.015625 323.894531 385.875 L 323.894531 369.042969 C 323.894531 367.90625 324.820312 366.980469 325.957031 366.980469 L 334.398438 366.980469 C 335.539062 366.980469 336.460938 367.90625 336.460938 369.042969 L 336.460938 385.703125 C 336.460938 387.273438 336.777344 388.410156 337.394531 389.082031 C 337.769531 389.488281 338.433594 390.023438 339.929688 390.023438 C 341.066406 390.023438 341.902344 389.726562 342.488281 389.117188 C 343.089844 388.492188 343.394531 387.414062 343.394531 385.917969 L 343.394531 369.042969 C 343.394531 367.90625 344.316406 366.980469 345.457031 366.980469 L 353.898438 366.980469 C 355.039062 366.980469 355.960938 367.90625 355.960938 369.042969 Z M 429.679688 397.875 L 439.191406 383.773438 L 430.105469 370.1875 C 429.679688 369.554688 429.640625 368.742188 430 368.070312 C 430.359375 367.398438 431.058594 366.980469 431.820312 366.980469 L 441.375 366.980469 C 442.082031 366.980469 442.742188 367.34375 443.121094 367.945312 L 446.695312 373.621094 L 450.304688 367.9375 C 450.683594 367.34375 451.339844 366.980469 452.046875 366.980469 L 461.386719 366.980469 C 462.148438 366.980469 462.847656 367.402344 463.207031 368.074219 C 463.566406 368.746094 463.523438 369.558594 463.097656 370.191406 L 454.015625 383.691406 L 463.527344 397.878906 C 463.953125 398.511719 463.992188 399.324219 463.636719 399.996094 C 463.277344 400.667969 462.578125 401.085938 461.816406 401.085938 L 452.257812 401.085938 C 451.554688 401.085938 450.898438 400.726562 450.519531 400.128906 L 446.511719 393.824219 L 442.46875 400.136719 C 442.089844 400.730469 441.4375 401.085938 440.734375 401.085938 L 431.390625 401.085938 C 430.628906 401.085938 429.925781 400.667969 429.570312 399.996094 C 429.210938 399.320312 429.253906 398.503906 429.679688 397.875 Z M 408.441406 417.101562 C 408.996094 416.542969 409.820312 416.355469 410.5625 416.605469 L 457.632812 432.570312 C 468.0625 418.648438 473.5625 402.117188 473.5625 384.671875 C 473.5625 340.507812 437.617188 304.578125 393.433594 304.578125 C 349.246094 304.578125 313.300781 340.507812 313.300781 384.671875 C 313.300781 428.835938 349.246094 464.765625 393.433594 464.765625 C 403.140625 464.765625 412.628906 463.039062 421.667969 459.632812 L 407.945312 419.21875 C 407.695312 418.476562 407.886719 417.652344 408.441406 417.101562 " fill-opacity="1" fill-rule="nonzero"/></g><g clip-path="url(#id3)"><path fill="#fffffe" d="M 323.421875 348.03125 L 462.90625 348.03125 L 462.90625 413.28125 L 323.421875 413.28125 L 323.421875 348.03125 " fill-opacity="1" fill-rule="nonzero"/></g><g clip-path="url(#id4)"><path fill="#fffffe" d="M 336.488281 357.351562 C 323.648438 357.351562 313.238281 367.757812 313.238281 380.601562 C 313.238281 393.441406 323.648438 403.851562 336.488281 403.851562 C 349.332031 403.851562 359.738281 393.441406 359.738281 380.601562 C 359.738281 367.757812 349.332031 357.351562 336.488281 357.351562 " fill-opacity="1" fill-rule="nonzero"/></g><g clip-path="url(#id5)"><path fill="#fffffe" d="M 445.867188 358.472656 C 433.027344 358.472656 422.617188 370.726562 422.617188 385.839844 C 422.617188 400.957031 433.027344 413.210938 445.867188 413.210938 C 458.707031 413.210938 469.117188 400.957031 469.117188 385.839844 C 469.117188 370.726562 458.707031 358.472656 445.867188 358.472656 " fill-opacity="1" fill-rule="nonzero"/></g><g fill="#ff8e3c" fill-opacity="1"><g transform="translate(333.714575, 400.258593)"><g><path d="M 13.179688 0.410156 C 18.664062 0.410156 24.152344 -2.785156 24.152344 -9.210938 L 24.152344 -28.652344 L 17.152344 -28.652344 L 17.152344 -9.25 C 17.152344 -7.121094 15.105469 -6.058594 13.058594 -6.058594 C 11.050781 -6.058594 9.046875 -7.121094 9.046875 -9.25 L 9.046875 -28.652344 L 2.046875 -28.652344 L 2.046875 -9.210938 C 2.046875 -2.703125 7.613281 0.410156 13.179688 0.410156 Z M 13.179688 0.410156 "/></g></g></g><g fill="#ff8e3c" fill-opacity="1"><g transform="translate(359.909048, 400.258593)"><g><path d="M 18.257812 0 L 18.257812 -6.261719 L 13.507812 -6.261719 L 13.507812 -22.433594 L 18.257812 -22.433594 L 18.257812 -28.816406 L 1.761719 -28.816406 L 1.761719 -22.433594 L 6.507812 -22.433594 L 6.507812 -6.261719 L 1.761719 -6.261719 L 1.761719 0 Z M 18.257812 0 "/></g></g></g><g fill="#ff8e3c" fill-opacity="1"><g transform="translate(379.718616, 400.258593)"><g><path d="M 5.933594 2.292969 L 17.027344 -30.25 L 10.273438 -30.25 L -0.820312 2.292969 Z M 5.933594 2.292969 "/></g></g></g><g fill="#ff8e3c" fill-opacity="1"><g transform="translate(398.668674, 400.258593)"><g><path d="M 13.179688 0.410156 C 18.664062 0.410156 24.152344 -2.785156 24.152344 -9.210938 L 24.152344 -28.652344 L 17.152344 -28.652344 L 17.152344 -9.25 C 17.152344 -7.121094 15.105469 -6.058594 13.058594 -6.058594 C 11.050781 -6.058594 9.046875 -7.121094 9.046875 -9.25 L 9.046875 -28.652344 L 2.046875 -28.652344 L 2.046875 -9.210938 C 2.046875 -2.703125 7.613281 0.410156 13.179688 0.410156 Z M 13.179688 0.410156 "/></g></g></g><g fill="#ff8e3c" fill-opacity="1"><g transform="translate(424.863148, 400.258593)"><g><path d="M 19.402344 0 L 26.933594 0 L 26.933594 -0.574219 L 17.722656 -14.53125 L 26.894531 -28 L 26.894531 -28.652344 L 19.445312 -28.652344 L 13.753906 -20.507812 L 8.144531 -28.652344 L 0.777344 -28.652344 L 0.777344 -27.835938 L 9.824219 -14.53125 L 0.65625 -0.574219 L 0.65625 0 L 8.1875 0 L 13.753906 -8.71875 Z M 19.402344 0 "/></g></g></g></svg>