<?xml version="1.0" standalone="no"?>
<!DOCTYPE svg PUBLIC "-//W3C//DTD SVG 20010904//EN"
 "http://www.w3.org/TR/2001/REC-SVG-20010904/DTD/svg10.dtd">
<svg version="1.0" xmlns="http://www.w3.org/2000/svg"
 width="1001.000000pt" height="1280.000000pt" viewBox="0 0 1001.000000 1280.000000"
 preserveAspectRatio="xMidYMid meet">
<g transform="translate(0.000000,1280.000000) scale(0.100000,-0.100000)"
fill="#000000" stroke="none">
<path d="M5760 12673 c-769 -81 -1693 -385 -2345 -773 -220 -131 -725 -493
-912 -654 -130 -113 -333 -320 -426 -436 -150 -187 -280 -412 -398 -691 -122
-288 -179 -497 -224 -815 -14 -99 -41 -278 -60 -399 -62 -400 -85 -570 -100
-736 -8 -90 -22 -240 -31 -334 -19 -199 -14 -519 11 -704 9 -62 13 -116 10
-119 -3 -3 -36 0 -73 6 -37 7 -94 17 -127 23 -78 14 -160 5 -234 -25 -74 -30
-213 -135 -247 -186 -26 -39 -98 -232 -137 -365 -17 -61 -21 -107 -25 -344 -6
-420 14 -557 128 -864 79 -211 159 -371 268 -537 107 -163 155 -222 302 -365
61 -60 158 -162 215 -225 114 -128 154 -156 280 -191 64 -18 105 -23 203 -23
l122 1 21 -71 c46 -159 61 -211 118 -423 205 -750 505 -1274 947 -1653 400
-344 869 -626 1379 -830 621 -249 1105 -390 1475 -431 161 -18 1206 -18 1345
0 269 34 381 71 541 178 259 173 661 503 860 705 192 195 296 324 452 558 309
461 435 770 542 1325 23 116 63 323 90 460 48 247 61 327 99 661 85 728 99
1080 51 1271 l-23 93 55 107 c30 60 66 138 78 174 l23 67 -23 93 c-21 82 -29
99 -68 141 -24 26 -69 60 -99 74 -34 17 -59 37 -66 53 -8 18 -13 276 -18 871
-6 811 -5 851 14 1000 30 222 29 535 -2 715 -36 213 -126 551 -198 745 -20 52
-80 183 -133 290 -54 108 -110 225 -125 260 -42 99 -158 328 -211 416 -178
296 -419 588 -646 782 -134 113 -792 570 -1028 712 -417 252 -1028 424 -1485
418 -71 0 -146 -3 -165 -5z"/>
</g>
</svg>
