<?xml version="1.0" encoding="UTF-8"?>
<svg xmlns="http://www.w3.org/2000/svg" xmlns:xlink="http://www.w3.org/1999/xlink" width="250px" height="250px" viewBox="0 0 250 250" version="1.1">
<defs>
<filter id="alpha" filterUnits="objectBoundingBox" x="0%" y="0%" width="100%" height="100%">
  <feColorMatrix type="matrix" in="SourceGraphic" values="0 0 0 0 1 0 0 0 0 1 0 0 0 0 1 0 0 0 1 0"/>
</filter>
<mask id="mask0">
  <g filter="url(#alpha)">
<rect x="0" y="0" width="250" height="250" style="fill:rgb(0%,0%,0%);fill-opacity:0.368627;stroke:none;"/>
  </g>
</mask>
<clipPath id="clip1">
  <rect x="0" y="0" width="250" height="250"/>
</clipPath>
<g id="surface5" clip-path="url(#clip1)">
<path style="fill:none;stroke-width:11;stroke-linecap:round;stroke-linejoin:miter;stroke:rgb(85.490196%,88.627451%,90.980392%);stroke-opacity:1;stroke-dasharray:42,42;stroke-dashoffset:25;stroke-miterlimit:4;" d="M 763.000412 399.995956 C 762.993642 600.477837 600.475212 763.000743 400.004044 763.000412 C 199.522163 762.993642 36.999257 600.475212 36.999588 400.004044 C 37.006358 199.522163 199.524788 36.999257 399.995956 36.999588 C 600.477837 37.006358 763.000743 199.524788 763.000412 399.995956 Z M 763.000412 399.995956 " transform="matrix(0.160949,0.267865,-0.267865,0.160949,167.766153,-46.525672)"/>
</g>
<mask id="mask1">
  <g filter="url(#alpha)">
<rect x="0" y="0" width="250" height="250" style="fill:rgb(0%,0%,0%);fill-opacity:0.65098;stroke:none;"/>
  </g>
</mask>
<clipPath id="clip2">
  <rect x="0" y="0" width="250" height="250"/>
</clipPath>
<g id="surface8" clip-path="url(#clip2)">
<path style="fill:none;stroke-width:11;stroke-linecap:round;stroke-linejoin:miter;stroke:rgb(85.490196%,88.627451%,90.980392%);stroke-opacity:1;stroke-dasharray:54,54;stroke-dashoffset:25;stroke-miterlimit:4;" d="M 746.506061 400.000007 C 746.497215 591.366485 591.365382 746.502454 399.999993 746.506061 C 208.633515 746.497215 53.497546 591.365382 53.493939 399.999993 C 53.502785 208.633515 208.634618 53.497546 400.000007 53.493939 C 591.366485 53.502785 746.502454 208.634618 746.506061 400.000007 Z M 746.506061 400.000007 " transform="matrix(-0.0272362,0.311311,-0.311311,-0.0272362,260.418805,11.370131)"/>
</g>
<mask id="mask2">
  <g filter="url(#alpha)">
<rect x="0" y="0" width="250" height="250" style="fill:rgb(0%,0%,0%);fill-opacity:0.509804;stroke:none;"/>
  </g>
</mask>
<clipPath id="clip3">
  <rect x="0" y="0" width="250" height="250"/>
</clipPath>
<g id="surface11" clip-path="url(#clip3)">
<path style="fill:none;stroke-width:10;stroke-linecap:round;stroke-linejoin:miter;stroke:rgb(85.490196%,88.627451%,90.980392%);stroke-opacity:1;stroke-dasharray:55,55;stroke-dashoffset:25;stroke-miterlimit:4;" d="M 730.00582 399.997148 C 730.005466 582.255895 582.250009 730.001491 400.002852 730.00582 C 217.744105 730.005466 69.998509 582.250009 69.99418 400.002852 C 69.994534 217.744105 217.749991 69.998509 399.997148 69.99418 C 582.255895 69.994534 730.001491 217.749991 730.00582 399.997148 Z M 730.00582 399.997148 " transform="matrix(-0.117065,-0.289745,0.289745,-0.117065,55.927842,287.723806)"/>
</g>
<mask id="mask3">
  <g filter="url(#alpha)">
<rect x="0" y="0" width="250" height="250" style="fill:rgb(0%,0%,0%);fill-opacity:0.788235;stroke:none;"/>
  </g>
</mask>
<clipPath id="clip4">
  <rect x="0" y="0" width="250" height="250"/>
</clipPath>
<g id="surface14" clip-path="url(#clip4)">
<path style="fill:none;stroke-width:10;stroke-linecap:round;stroke-linejoin:miter;stroke:rgb(85.490196%,88.627451%,90.980392%);stroke-opacity:1;stroke-dasharray:33,33;stroke-dashoffset:25;stroke-miterlimit:4;" d="M 713.505416 400.004787 C 713.503064 573.140991 573.142542 713.494029 399.995213 713.505416 C 226.859009 713.503064 86.505971 573.142542 86.494584 399.995213 C 86.496936 226.859009 226.857458 86.505971 400.004787 86.494584 C 573.140991 86.496936 713.494029 226.857458 713.505416 400.004787 Z M 713.505416 400.004787 " transform="matrix(-0.310788,-0.0326651,0.0326651,-0.310788,236.249179,262.381295)"/>
</g>
<mask id="mask4">
  <g filter="url(#alpha)">
<rect x="0" y="0" width="250" height="250" style="fill:rgb(0%,0%,0%);fill-opacity:0.458824;stroke:none;"/>
  </g>
</mask>
<clipPath id="clip5">
  <rect x="0" y="0" width="250" height="250"/>
</clipPath>
<g id="surface17" clip-path="url(#clip5)">
<path style="fill:none;stroke-width:10;stroke-linecap:round;stroke-linejoin:miter;stroke:rgb(85.490196%,88.627451%,90.980392%);stroke-opacity:1;stroke-dasharray:43,43;stroke-dashoffset:25;stroke-miterlimit:4;" d="M 696.997059 400.000094 C 697.003801 564.023934 564.03285 697.00547 399.999906 696.997059 C 235.976066 697.003801 102.99453 564.03285 103.002941 399.999906 C 102.996199 235.976066 235.96715 102.99453 400.000094 103.002941 C 564.023934 102.996199 697.00547 235.96715 696.997059 400.000094 Z M 696.997059 400.000094 " transform="matrix(-0.303217,0.0756006,-0.0756006,-0.303217,276.527203,216.046729)"/>
</g>
<mask id="mask5">
  <g filter="url(#alpha)">
<rect x="0" y="0" width="250" height="250" style="fill:rgb(0%,0%,0%);fill-opacity:0.968627;stroke:none;"/>
  </g>
</mask>
<clipPath id="clip6">
  <rect x="0" y="0" width="250" height="250"/>
</clipPath>
<g id="surface20" clip-path="url(#clip6)">
<path style="fill:none;stroke-width:10;stroke-linecap:round;stroke-linejoin:miter;stroke:rgb(85.490196%,88.627451%,90.980392%);stroke-opacity:1;stroke-dasharray:38,38;stroke-dashoffset:25;stroke-miterlimit:4;" d="M 680.498236 399.994431 C 680.50145 554.917338 554.91097 680.497481 400.005569 680.498236 C 245.082662 680.50145 119.502519 554.91097 119.501764 400.005569 C 119.49855 245.082662 245.08903 119.502519 399.994431 119.501764 C 554.917338 119.49855 680.497481 245.08903 680.498236 399.994431 Z M 680.498236 399.994431 " transform="matrix(0.188067,0.249574,-0.249574,0.188067,149.602561,-50.056317)"/>
</g>
<mask id="mask6">
  <g filter="url(#alpha)">
<rect x="0" y="0" width="250" height="250" style="fill:rgb(0%,0%,0%);fill-opacity:0.270588;stroke:none;"/>
  </g>
</mask>
<clipPath id="clip7">
  <rect x="0" y="0" width="250" height="250"/>
</clipPath>
<g id="surface23" clip-path="url(#clip7)">
<path style="fill:none;stroke-width:9;stroke-linecap:round;stroke-linejoin:miter;stroke:rgb(85.490196%,88.627451%,90.980392%);stroke-opacity:1;stroke-dasharray:10,10;stroke-dashoffset:5;stroke-miterlimit:4;" d="M 663.99853 399.998118 C 663.993441 545.805206 545.797016 663.999965 400.001882 663.99853 C 254.194794 663.993441 136.000035 545.797016 136.00147 400.001882 C 136.006559 254.194794 254.202984 136.000035 399.998118 136.00147 C 545.805206 136.006559 663.999965 254.202984 663.99853 399.998118 Z M 663.99853 399.998118 " transform="matrix(-0.298845,0.0913662,-0.0913662,-0.298845,281.084558,207.991631)"/>
</g>
<mask id="mask7">
  <g filter="url(#alpha)">
<rect x="0" y="0" width="250" height="250" style="fill:rgb(0%,0%,0%);fill-opacity:0.6;stroke:none;"/>
  </g>
</mask>
<clipPath id="clip8">
  <rect x="0" y="0" width="250" height="250"/>
</clipPath>
<g id="surface26" clip-path="url(#clip8)">
<path style="fill:none;stroke-width:9;stroke-linecap:round;stroke-linejoin:miter;stroke:rgb(85.490196%,88.627451%,90.980392%);stroke-opacity:1;stroke-dasharray:37,37;stroke-dashoffset:25;stroke-miterlimit:4;" d="M 647.501523 400.003233 C 647.497866 536.690367 536.696383 647.505834 399.996767 647.501523 C 263.309633 647.497866 152.494166 536.696383 152.498477 399.996767 C 152.502134 263.309633 263.303617 152.494166 400.003233 152.498477 C 536.690367 152.502134 647.505834 263.303617 647.501523 400.003233 Z M 647.501523 400.003233 " transform="matrix(-0.016355,-0.312072,0.312072,-0.016355,6.713303,256.370686)"/>
</g>
<mask id="mask8">
  <g filter="url(#alpha)">
<rect x="0" y="0" width="250" height="250" style="fill:rgb(0%,0%,0%);fill-opacity:0.8;stroke:none;"/>
  </g>
</mask>
<clipPath id="clip9">
  <rect x="0" y="0" width="250" height="250"/>
</clipPath>
<g id="surface29" clip-path="url(#clip9)">
<path style="fill:none;stroke-width:9;stroke-linecap:round;stroke-linejoin:miter;stroke:rgb(85.490196%,88.627451%,90.980392%);stroke-opacity:1;stroke-dasharray:38,38;stroke-dashoffset:25;stroke-miterlimit:4;" d="M 630.995801 399.994842 C 630.997052 527.583127 527.581623 630.99862 400.005158 630.995801 C 272.416873 630.997052 169.00138 527.581623 169.004199 400.005158 C 169.002948 272.416873 272.418377 169.00138 399.994842 169.004199 C 527.583127 169.002948 630.99862 272.418377 630.995801 399.994842 Z M 630.995801 399.994842 " transform="matrix(0.295475,0.10174,-0.10174,0.295475,47.506197,-33.885841)"/>
</g>
<mask id="mask9">
  <g filter="url(#alpha)">
<rect x="0" y="0" width="250" height="250" style="fill:rgb(0%,0%,0%);fill-opacity:0.211765;stroke:none;"/>
  </g>
</mask>
<clipPath id="clip10">
  <rect x="0" y="0" width="250" height="250"/>
</clipPath>
<g id="surface32" clip-path="url(#clip10)">
<path style="fill:none;stroke-width:8;stroke-linecap:round;stroke-linejoin:miter;stroke:rgb(85.490196%,88.627451%,90.980392%);stroke-opacity:1;stroke-dasharray:47,47;stroke-dashoffset:25;stroke-miterlimit:4;" d="M 614.497499 399.999911 C 614.498597 518.463405 518.463584 614.496401 400.000089 614.497499 C 281.536595 614.498597 185.503599 518.463584 185.502501 400.000089 C 185.501403 281.536595 281.536416 185.503599 399.999911 185.502501 C 518.463405 185.501403 614.496401 281.536416 614.497499 399.999911 Z M 614.497499 399.999911 " transform="matrix(-0.0217989,0.311739,-0.311739,-0.0217989,258.415066,9.024053)"/>
</g>
<mask id="mask10">
  <g filter="url(#alpha)">
<rect x="0" y="0" width="250" height="250" style="fill:rgb(0%,0%,0%);fill-opacity:0.980392;stroke:none;"/>
  </g>
</mask>
<clipPath id="clip11">
  <rect x="0" y="0" width="250" height="250"/>
</clipPath>
<g id="surface35" clip-path="url(#clip11)">
<path style="fill:none;stroke-width:8;stroke-linecap:round;stroke-linejoin:miter;stroke:rgb(85.490196%,88.627451%,90.980392%);stroke-opacity:1;stroke-dasharray:31,31;stroke-dashoffset:25;stroke-miterlimit:4;" d="M 597.995703 399.997449 C 598.004294 509.351864 509.356531 597.999604 400.002551 597.995703 C 290.648136 598.004294 202.000396 509.356531 202.004297 400.002551 C 201.995706 290.648136 290.643469 202.000396 399.997449 202.004297 C 509.351864 201.995706 597.999604 290.643469 597.995703 399.997449 Z M 597.995703 399.997449 " transform="matrix(0.31231,-0.0109061,0.0109061,0.31231,-4.28629,4.438584)"/>
</g>
<mask id="mask11">
  <g filter="url(#alpha)">
<rect x="0" y="0" width="250" height="250" style="fill:rgb(0%,0%,0%);fill-opacity:0.109804;stroke:none;"/>
  </g>
</mask>
<clipPath id="clip12">
  <rect x="0" y="0" width="250" height="250"/>
</clipPath>
<g id="surface38" clip-path="url(#clip12)">
<path style="fill:none;stroke-width:8;stroke-linecap:round;stroke-linejoin:miter;stroke:rgb(85.490196%,88.627451%,90.980392%);stroke-opacity:1;stroke-dasharray:19,19;stroke-dashoffset:25;stroke-miterlimit:4;" d="M 581.503548 399.994679 C 581.499019 500.24135 500.241109 581.494148 400.005321 581.503548 C 299.75865 581.499019 218.505852 500.241109 218.496452 400.005321 C 218.500981 299.75865 299.758891 218.505852 399.994679 218.496452 C 500.24135 218.500981 581.494148 299.758891 581.503548 399.994679 Z M 581.503548 399.994679 " transform="matrix(0.310171,-0.0380842,0.0380842,0.310171,-14.301937,16.165399)"/>
</g>
<mask id="mask12">
  <g filter="url(#alpha)">
<rect x="0" y="0" width="250" height="250" style="fill:rgb(0%,0%,0%);fill-opacity:0.180392;stroke:none;"/>
  </g>
</mask>
<clipPath id="clip13">
  <rect x="0" y="0" width="250" height="250"/>
</clipPath>
<g id="surface41" clip-path="url(#clip13)">
<path style="fill:none;stroke-width:8;stroke-linecap:round;stroke-linejoin:miter;stroke:rgb(85.490196%,88.627451%,90.980392%);stroke-opacity:1;stroke-dasharray:29,29;stroke-dashoffset:25;stroke-miterlimit:4;" d="M 565.002114 400.002541 C 564.995976 491.124938 491.131455 564.99491 399.997459 565.002114 C 308.875062 564.995976 235.00509 491.131455 234.997886 399.997459 C 235.004024 308.875062 308.868545 235.00509 400.002541 234.997886 C 491.124938 235.004024 564.99491 308.868545 565.002114 400.002541 Z M 565.002114 400.002541 " transform="matrix(-0.0217989,0.311739,-0.311739,-0.0217989,258.415066,9.024053)"/>
</g>
<mask id="mask13">
  <g filter="url(#alpha)">
<rect x="0" y="0" width="250" height="250" style="fill:rgb(0%,0%,0%);fill-opacity:0.921569;stroke:none;"/>
  </g>
</mask>
<clipPath id="clip14">
  <rect x="0" y="0" width="250" height="250"/>
</clipPath>
<g id="surface44" clip-path="url(#clip14)">
<path style="fill:none;stroke-width:7;stroke-linecap:round;stroke-linejoin:miter;stroke:rgb(85.490196%,88.627451%,90.980392%);stroke-opacity:1;stroke-dasharray:15,15;stroke-dashoffset:25;stroke-miterlimit:4;" d="M 548.504219 400.004298 C 548.505086 482.010438 482.019251 548.500282 399.995702 548.504219 C 317.989562 548.505086 251.499718 482.019251 251.495781 399.995702 C 251.494914 317.989562 317.980749 251.499718 400.004298 251.495781 C 482.010438 251.494914 548.500282 317.980749 548.504219 400.004298 Z M 548.504219 400.004298 " transform="matrix(0.255985,-0.179243,0.179243,0.255985,-49.09106,94.303049)"/>
</g>
<mask id="mask14">
  <g filter="url(#alpha)">
<rect x="0" y="0" width="250" height="250" style="fill:rgb(0%,0%,0%);fill-opacity:0.909804;stroke:none;"/>
  </g>
</mask>
<clipPath id="clip15">
  <rect x="0" y="0" width="250" height="250"/>
</clipPath>
<g id="surface47" clip-path="url(#clip15)">
<path style="fill:none;stroke-width:7;stroke-linecap:round;stroke-linejoin:miter;stroke:rgb(85.490196%,88.627451%,90.980392%);stroke-opacity:1;stroke-dasharray:52,52;stroke-dashoffset:25;stroke-miterlimit:4;" d="M 532.002654 400.002031 C 531.996991 472.905949 472.901887 532.008316 399.997969 532.002654 C 327.094051 531.996991 267.991684 472.901887 267.997346 399.997969 C 268.003009 327.094051 327.098113 267.991684 400.002031 267.997346 C 472.905949 268.003009 532.008316 327.098113 532.002654 400.002031 Z M 532.002654 400.002031 " transform="matrix(-0.205018,-0.235847,0.235847,-0.205018,112.668681,301.346076)"/>
</g>
<mask id="mask15">
  <g filter="url(#alpha)">
<rect x="0" y="0" width="250" height="250" style="fill:rgb(0%,0%,0%);fill-opacity:0.831373;stroke:none;"/>
  </g>
</mask>
<clipPath id="clip16">
  <rect x="0" y="0" width="250" height="250"/>
</clipPath>
<g id="surface50" clip-path="url(#clip16)">
<path style="fill:none;stroke-width:7;stroke-linecap:round;stroke-linejoin:miter;stroke:rgb(85.490196%,88.627451%,90.980392%);stroke-opacity:1;stroke-dasharray:19,19;stroke-dashoffset:25;stroke-miterlimit:4;" d="M 515.496067 400.00541 C 515.496941 463.792783 463.794445 515.494538 399.99459 515.496067 C 336.207217 515.496941 284.505462 463.794445 284.503933 399.99459 C 284.503059 336.207217 336.205555 284.505462 400.00541 284.503933 C 463.792783 284.503059 515.494538 336.205555 515.496067 400.00541 Z M 515.496067 400.00541 " transform="matrix(0.016355,-0.312072,0.312072,0.016355,-6.370686,243.286697)"/>
</g>
<mask id="mask16">
  <g filter="url(#alpha)">
<rect x="0" y="0" width="250" height="250" style="fill:rgb(0%,0%,0%);fill-opacity:0.968627;stroke:none;"/>
  </g>
</mask>
<clipPath id="clip17">
  <rect x="0" y="0" width="250" height="250"/>
</clipPath>
<g id="surface53" clip-path="url(#clip17)">
<path style="fill:none;stroke-width:6;stroke-linecap:round;stroke-linejoin:miter;stroke:rgb(85.490196%,88.627451%,90.980392%);stroke-opacity:1;stroke-dasharray:40,40;stroke-dashoffset:25;stroke-miterlimit:4;" d="M 498.993422 400.001164 C 498.992364 454.676184 454.673856 498.994481 399.998836 498.993422 C 345.323816 498.992364 301.005519 454.673856 301.006578 399.998836 C 301.007636 345.323816 345.326144 301.005519 400.001164 301.006578 C 454.676184 301.007636 498.994481 345.326144 498.993422 400.001164 Z M 498.993422 400.001164 " transform="matrix(-0.213124,-0.228548,0.228548,-0.213124,118.830582,301.669008)"/>
</g>
<mask id="mask17">
  <g filter="url(#alpha)">
<rect x="0" y="0" width="250" height="250" style="fill:rgb(0%,0%,0%);fill-opacity:0.811765;stroke:none;"/>
  </g>
</mask>
<clipPath id="clip18">
  <rect x="0" y="0" width="250" height="250"/>
</clipPath>
<g id="surface56" clip-path="url(#clip18)">
<path style="fill:none;stroke-width:6;stroke-linecap:round;stroke-linejoin:miter;stroke:rgb(85.490196%,88.627451%,90.980392%);stroke-opacity:1;stroke-dasharray:42,42;stroke-dashoffset:25;stroke-miterlimit:4;" d="M 482.500237 400.005545 C 482.502742 445.567101 445.55601 482.497731 399.994455 482.500237 C 354.432899 482.502742 317.502269 445.55601 317.499763 399.994455 C 317.497258 354.432899 354.44399 317.502269 400.005545 317.499763 C 445.567101 317.497258 482.497731 354.44399 482.500237 400.005545 Z M 482.500237 400.005545 " transform="matrix(0.262085,0.1702,-0.1702,0.262085,88.246058,-47.9137)"/>
</g>
<mask id="mask18">
  <g filter="url(#alpha)">
<rect x="0" y="0" width="250" height="250" style="fill:rgb(0%,0%,0%);fill-opacity:0.878431;stroke:none;"/>
  </g>
</mask>
<clipPath id="clip19">
  <rect x="0" y="0" width="250" height="250"/>
</clipPath>
<g id="surface59" clip-path="url(#clip19)">
<path style="fill:none;stroke-width:6;stroke-linecap:round;stroke-linejoin:miter;stroke:rgb(85.490196%,88.627451%,90.980392%);stroke-opacity:1;stroke-dasharray:33,33;stroke-dashoffset:25;stroke-miterlimit:4;" d="M 466.002728 399.995678 C 465.997878 436.445886 436.453875 465.995096 400.004322 466.002728 C 363.554114 465.997878 334.004904 436.453875 333.997272 400.004322 C 334.002122 363.554114 363.546125 334.004904 399.995678 333.997272 C 436.445886 334.002122 465.995096 363.546125 466.002728 399.995678 Z M 466.002728 399.995678 " transform="matrix(0.016355,-0.312072,0.312072,0.016355,-6.370686,243.286697)"/>
</g>
<mask id="mask19">
  <g filter="url(#alpha)">
<rect x="0" y="0" width="250" height="250" style="fill:rgb(0%,0%,0%);fill-opacity:0.819608;stroke:none;"/>
  </g>
</mask>
<clipPath id="clip20">
  <rect x="0" y="0" width="250" height="250"/>
</clipPath>
<g id="surface62" clip-path="url(#clip20)">
<path style="fill:none;stroke-width:6;stroke-linecap:round;stroke-linejoin:miter;stroke:rgb(85.490196%,88.627451%,90.980392%);stroke-opacity:1;stroke-dasharray:46,46;stroke-dashoffset:25;stroke-miterlimit:4;" d="M 449.501157 400.002366 C 449.504538 427.3331 427.340323 449.494121 399.997634 449.501157 C 372.6669 449.504538 350.505879 427.340323 350.498843 399.997634 C 350.495462 372.6669 372.659677 350.505879 400.002366 350.498843 C 427.3331 350.495462 449.494121 372.659677 449.501157 400.002366 Z M 449.501157 400.002366 " transform="matrix(-0.298845,-0.0913662,0.0913662,-0.298845,207.991631,281.084558)"/>
</g>
<mask id="mask20">
  <g filter="url(#alpha)">
<rect x="0" y="0" width="250" height="250" style="fill:rgb(0%,0%,0%);fill-opacity:0.788235;stroke:none;"/>
  </g>
</mask>
<clipPath id="clip21">
  <rect x="0" y="0" width="250" height="250"/>
</clipPath>
<g id="surface65" clip-path="url(#clip21)">
<path style="fill:none;stroke-width:5;stroke-linecap:round;stroke-linejoin:miter;stroke:rgb(85.490196%,88.627451%,90.980392%);stroke-opacity:1;stroke-dasharray:13,13;stroke-dashoffset:25;stroke-miterlimit:4;" d="M 433.000059 400.006575 C 432.995344 418.22649 418.23092 433.002925 399.993425 433.000059 C 381.77351 432.995344 366.997075 418.23092 366.999941 399.993425 C 367.004656 381.77351 381.76908 366.997075 400.006575 366.999941 C 418.22649 367.004656 433.002925 381.76908 433.000059 400.006575 Z M 433.000059 400.006575 " transform="matrix(-0.196663,-0.242858,0.242858,-0.196663,106.521804,300.808294)"/>
</g>
<mask id="mask21">
  <g filter="url(#alpha)">
<rect x="0" y="0" width="250" height="250" style="fill:rgb(0%,0%,0%);fill-opacity:0.101961;stroke:none;"/>
  </g>
</mask>
<clipPath id="clip22">
  <rect x="0" y="0" width="250" height="250"/>
</clipPath>
<g id="surface68" clip-path="url(#clip22)">
<path style="fill:none;stroke-width:5;stroke-linecap:round;stroke-linejoin:miter;stroke:rgb(85.490196%,88.627451%,90.980392%);stroke-opacity:1;stroke-dasharray:12,12;stroke-dashoffset:1;stroke-miterlimit:4;" d="M 416.502164 399.998557 C 416.502061 409.114151 409.117038 416.502266 400.001443 416.502164 C 390.885849 416.502061 383.497734 409.117038 383.497836 400.001443 C 383.497939 390.885849 390.882962 383.497734 399.998557 383.497836 C 409.114151 383.497939 416.502266 390.882962 416.502164 399.998557 Z M 416.502164 399.998557 " transform="matrix(0.0861367,0.300394,-0.300394,0.0861367,210.703043,-29.612381)"/>
</g>
</defs>
<g id="surface1">
<use xlink:href="#surface5" mask="url(#mask0)"/>
<use xlink:href="#surface8" mask="url(#mask1)"/>
<use xlink:href="#surface11" mask="url(#mask2)"/>
<use xlink:href="#surface14" mask="url(#mask3)"/>
<use xlink:href="#surface17" mask="url(#mask4)"/>
<use xlink:href="#surface20" mask="url(#mask5)"/>
<use xlink:href="#surface23" mask="url(#mask6)"/>
<use xlink:href="#surface26" mask="url(#mask7)"/>
<use xlink:href="#surface29" mask="url(#mask8)"/>
<use xlink:href="#surface32" mask="url(#mask9)"/>
<use xlink:href="#surface35" mask="url(#mask10)"/>
<use xlink:href="#surface38" mask="url(#mask11)"/>
<use xlink:href="#surface41" mask="url(#mask12)"/>
<use xlink:href="#surface44" mask="url(#mask13)"/>
<use xlink:href="#surface47" mask="url(#mask14)"/>
<use xlink:href="#surface50" mask="url(#mask15)"/>
<use xlink:href="#surface53" mask="url(#mask16)"/>
<use xlink:href="#surface56" mask="url(#mask17)"/>
<use xlink:href="#surface59" mask="url(#mask18)"/>
<use xlink:href="#surface62" mask="url(#mask19)"/>
<use xlink:href="#surface65" mask="url(#mask20)"/>
<use xlink:href="#surface68" mask="url(#mask21)"/>
</g>
</svg>
