<svg xmlns="http://www.w3.org/2000/svg" xmlns:xlink="http://www.w3.org/1999/xlink" version="1.1" viewBox="0 0 218.79 59.72"><defs/><g transform="translate(-114.09349822998047,28.200000762939453)"><rect fill="rgb(255,255,255)" stroke="none" x="0" y="0" width="218.7930908203125" height="59.720001220703125" fill-opacity="0" transform="translate(114.09349822998047,-28.200000762939453)"/><g transform="translate(109.88712347857174,30) rotate(0,0,0) translate(-109.88712347857174,-30) matrix(1,0,-0.14054083470239145,1,109.88712347857174,30)"><path fill="rgb(0,0,0)" fill-opacity="1" d="M48.02-9.42L48.02-9.42Q48.02-8.93 47.97-8.69L47.97-8.69Q47.73-8.59 47.58-8.42Q47.44-8.25 47.09-8.30L47.09-8.30Q47.00-7.57 46.61-7.08Q46.22-6.59 45.80-6.17Q45.39-5.76 44.99-5.29Q44.60-4.83 44.51-4.10L44.51-4.10Q43.77-3.71 43.07-3.05Q42.36-2.39 41.82-2.15L41.82-2.15Q41.43-1.95 40.99-1.83Q40.55-1.71 40.11-1.51L40.11-1.51Q38.70-0.88 37.21-0.19Q35.72 0.49 34.11 0.49L34.11 0.49L33.76 0.49Q33.57 0.69 33.28 0.76Q32.98 0.83 32.69 0.88Q32.40 0.93 32.10 1.03Q31.81 1.13 31.66 1.32L31.66 1.32Q31.13 1.13 30.49 1.13L30.49 1.13L30.15 1.13Q29.32 1.32 28.59 1.42Q27.86 1.52 27.03 1.52L27.03 1.52Q25.56 1.52 24.10 1.32Q22.63 1.13 21.17 0.98L21.17 0.98Q20.24 0.25 19.65-0.85Q19.07-1.95 19.07-3.17L19.07-3.17Q19.07-4.10 19.46-4.90Q19.85-5.71 20.48-6.34L20.48-6.34L20.63-6.34Q21.07-6.34 21.53-6.54Q22.00-6.74 22.44-6.74L22.44-6.74Q22.92-6.74 23.24-6.34Q23.56-5.95 23.73-5.42Q23.90-4.88 23.95-4.32Q24.00-3.76 24.00-3.42L24.00-3.42Q24.54-3.17 25.15-3.12Q25.76-3.07 26.39-3.07L26.39-3.07Q27.03-3.07 27.81-3.15Q28.59-3.22 29.39-3.39Q30.20-3.56 30.96-3.81Q31.71-4.05 32.25-4.44L32.25-4.44Q34.94-4.68 36.99-5.66Q39.04-6.64 41.33-7.96L41.33-7.96Q41.43-8.49 41.75-8.81Q42.06-9.13 42.06-9.76L42.06-9.76Q42.06-9.86 42.04-9.98Q42.02-10.10 42.02-10.20L42.02-10.20Q41.04-11.42 39.99-12.35Q38.94-13.28 37.28-13.57L37.28-13.57Q37.08-14.01 36.64-14.23Q36.21-14.45 35.72-14.65Q35.23-14.84 34.79-15.06Q34.35-15.28 34.15-15.82L34.15-15.82Q32.84-16.06 31.44-16.43Q30.05-16.79 29.08-17.77L29.08-17.77Q28.30-17.82 27.59-18.09Q26.88-18.36 26.20-18.63Q25.51-18.89 24.78-19.11Q24.05-19.33 23.27-19.33L23.27-19.33Q23.07-19.67 22.73-19.87Q22.39-20.07 21.97-20.21Q21.56-20.36 21.19-20.53Q20.82-20.70 20.63-21.04L20.63-21.04Q20.43-20.99 20.34-20.85Q20.24-20.70 19.99-20.70L19.99-20.70L19.80-20.70Q19.70-20.99 19.41-21.12Q19.12-21.24 19.07-21.63L19.07-21.63Q18.19-21.68 17.48-21.97Q16.77-22.26 16.16-22.63Q15.55-23.00 14.92-23.34Q14.28-23.68 13.50-23.87L13.50-23.87Q13.01-24.26 12.60-24.73Q12.18-25.19 11.55-25.19L11.55-25.19Q11.40-25.19 11.01-25.09L11.01-25.09Q10.91-25.97 10.28-26.34Q9.64-26.71 8.91-27.00L8.91-27.00Q8.42-28.27 7.59-29.25Q6.76-30.22 5.79-31.05L5.79-31.05Q5.88-31.34 5.88-31.49L5.88-31.49Q5.88-31.98 5.64-32.35Q5.39-32.71 5.10-32.96L5.10-32.96Q4.42-35.15 4.42-37.25L4.42-37.25Q4.42-40.18 5.71-42.70Q7.01-45.21 9.79-46.48L9.79-46.48Q9.84-46.87 10.06-47.17Q10.28-47.46 10.33-47.85L10.33-47.85Q10.77-47.85 11.01-48.04Q11.25-48.24 11.47-48.46Q11.69-48.68 11.94-48.87Q12.18-49.07 12.57-49.12L12.57-49.12Q14.43-50.73 16.53-51.73Q18.63-52.73 20.82-53.81L20.82-53.81Q21.26-54.00 21.56-54.54L21.56-54.54L21.85-54.54Q22.34-54.54 22.61-54.76Q22.88-54.98 23.41-54.88L23.41-54.88Q23.61-55.17 23.93-55.27Q24.24-55.37 24.56-55.44Q24.88-55.51 25.17-55.66Q25.46-55.81 25.56-56.10L25.56-56.10L25.90-56.10Q26.73-56.10 27.51-56.37Q28.30-56.64 29.08-56.98L29.08-56.98L29.42-56.98Q30.39-56.98 31.25-57.35Q32.10-57.71 33.08-57.86L33.08-57.86Q33.47-57.96 33.86-57.91Q34.25-57.86 34.64-57.86L34.64-57.86Q34.89-57.86 35.23-57.91Q35.57-57.96 35.72-58.20L35.72-58.20L35.81-58.20Q36.11-58.20 36.16-58.00Q36.21-57.81 36.45-57.81L36.45-57.81Q36.79-57.81 37.13-57.91Q37.48-58.00 37.82-58.00L37.82-58.00Q39.28-58.00 40.72-57.71Q42.16-57.42 43.58-57.17L43.58-57.17Q43.68-56.59 44.09-56.34Q44.51-56.10 44.99-55.91L44.99-55.91L44.99-55.71Q44.99-55.32 45.19-55.08L45.19-55.08Q44.99-54.39 44.51-54.05Q44.02-53.71 43.43-53.46L43.43-53.46Q43.68-53.27 43.73-52.93Q43.77-52.58 43.77-52.29L43.77-52.29L43.77-51.71L43.53-51.75Q42.75-51.75 42.75-51.02L42.75-51.02Q42.11-51.41 41.36-51.51Q40.60-51.61 39.87-51.61L39.87-51.61Q38.89-51.61 37.82-51.54Q36.74-51.46 35.72-51.56L35.72-51.56Q35.33-51.07 34.74-50.85Q34.15-50.63 33.57-50.63L33.57-50.63Q32.93-50.63 32.35-50.90Q31.76-51.17 31.52-51.71L31.52-51.71Q31.27-51.80 31.08-51.80L31.08-51.80L30.64-51.80Q29.86-51.80 29.10-51.63Q28.34-51.46 27.56-51.24Q26.78-51.02 26.02-50.80Q25.27-50.58 24.49-50.53L24.49-50.53Q24.19-50.14 23.71-50.00Q23.22-49.85 22.92-49.46L22.92-49.46Q21.90-49.26 21.07-48.80Q20.24-48.34 19.46-47.80L19.46-47.80L17.94-46.77Q17.21-46.29 16.28-45.94L16.28-45.94Q15.60-45.21 15.01-44.77Q14.43-44.33 13.50-43.99L13.50-43.99Q12.91-43.80 12.84-43.41Q12.77-43.01 12.43-42.62L12.43-42.62Q12.13-42.28 11.72-42.11Q11.30-41.94 11.01-41.55L11.01-41.55Q10.77-41.21 10.64-40.74Q10.52-40.28 10.38-39.84Q10.23-39.40 10.03-38.99Q9.84-38.57 9.45-38.28L9.45-38.28Q9.45-38.08 9.42-37.89Q9.40-37.69 9.40-37.55L9.40-37.55Q9.40-36.86 9.57-36.15Q9.74-35.45 9.79-34.76L9.79-34.76Q10.77-33.05 12.08-31.66Q13.40-30.27 14.92-29.10Q16.43-27.93 18.07-26.90Q19.70-25.88 21.31-24.90L21.31-24.90Q21.90-24.95 22.39-24.78Q22.88-24.61 23.41-24.56L23.41-24.56Q24.00-24.12 24.78-23.87L24.78-23.87L26.34-23.39Q27.12-23.14 27.86-22.82Q28.59-22.51 29.08-21.97L29.08-21.97Q29.32-21.92 29.52-21.85Q29.71-21.77 29.96-21.77L29.96-21.77Q30.25-21.77 30.30-21.97L30.30-21.97Q32.49-21.14 34.59-20.14Q36.69-19.14 39.04-18.60L39.04-18.60Q39.97-17.82 41.09-17.23Q42.21-16.65 43.33-16.04Q44.46-15.43 45.48-14.72Q46.51-14.01 47.29-13.03L47.29-13.03Q47.39-12.11 47.70-11.25Q48.02-10.40 48.02-9.42ZM81.13-30.42L81.13-30.42Q80.93-29.93 80.74-29.49Q80.54-29.05 80.44-28.51L80.44-28.51Q80.10-28.27 79.69-28.15Q79.27-28.02 78.83-27.90Q78.39-27.78 78.03-27.61Q77.66-27.44 77.47-27.10L77.47-27.10Q77.32-26.36 77.32-25.73L77.32-25.73Q77.32-24.90 77.61-24.31L77.61-24.31Q77.47-23.87 77.42-23.39Q77.37-22.90 77.37-22.46L77.37-22.46Q77.37-20.85 77.76-19.26Q78.15-17.67 78.20-16.06L78.20-16.06Q78.20-15.82 78.15-15.52Q78.10-15.23 78.10-14.99L78.10-14.99Q78.10-13.96 78.88-13.62L78.88-13.62Q78.73-13.38 78.73-13.18L78.73-13.18Q78.73-12.79 78.83-12.50Q78.93-12.20 78.88-11.86L78.88-11.86Q79.13-11.37 79.37-11.01Q79.61-10.64 79.71-10.10L79.71-10.10Q79.37-9.42 78.88-8.86Q78.39-8.30 78.20-7.47L78.20-7.47Q78.00-7.52 77.76-7.52L77.76-7.52Q77.42-7.52 77.22-7.37Q77.03-7.22 76.90-7.00Q76.78-6.78 76.64-6.56Q76.49-6.34 76.24-6.25L76.24-6.25L76.10-6.25Q75.85-6.20 75.68-6.27Q75.51-6.34 75.37-6.34L75.37-6.34Q75.27-6.34 74.98-6.25L74.98-6.25Q74.58-6.74 74.44-7.39Q74.29-8.05 74.29-8.69L74.29-8.69Q74.29-9.37 74.49-9.91L74.49-9.91Q73.95-10.35 73.83-11.23Q73.71-12.11 73.56-12.69L73.56-12.69Q73.17-14.50 72.66-16.21Q72.14-17.92 72.05-19.72L72.05-19.72Q72.00-20.41 72.00-21.04L72.00-21.04L72.00-23.58Q72.00-24.22 72.05-24.80L72.05-24.80Q72.05-25.24 72.12-25.66Q72.19-26.07 72.19-26.51L72.19-26.51Q72.19-27.10 71.80-27.63L71.80-27.63Q68.33-27.49 65.23-26.39Q62.13-25.29 59.06-23.78L59.06-23.78Q58.86-22.65 58.81-21.58Q58.76-20.50 58.76-19.38L58.76-19.38L58.76-17.23Q58.76-16.01 58.86-15.18L58.86-15.18Q59.11-13.77 60.30-13.01Q61.50-12.25 62.72-11.86L62.72-11.86Q62.67-11.13 62.43-10.62Q62.18-10.10 61.82-9.69Q61.45-9.27 61.01-8.88Q60.57-8.49 60.13-8.00L60.13-8.00Q59.74-8.25 59.35-8.35Q58.96-8.44 58.52-8.47Q58.08-8.49 57.64-8.54Q57.20-8.59 56.76-8.74L56.76-8.74L55.69-10.20Q55.15-10.93 54.52-11.67L54.52-11.67L54.52-12.11Q54.52-13.42 54.03-14.65Q53.54-15.87 53.30-17.14L53.30-17.14Q53.44-17.58 53.49-18.01Q53.54-18.45 53.54-18.94L53.54-18.94Q53.54-19.92 53.47-20.85Q53.39-21.77 53.49-22.70L53.49-22.70L53.25-22.70Q52.81-22.70 52.32-22.48Q51.83-22.26 51.37-21.99Q50.90-21.73 50.49-21.51Q50.07-21.29 49.78-21.29L49.78-21.29Q49.63-21.29 49.49-21.33Q49.34-21.38 49.14-21.38L49.14-21.38Q48.90-21.38 48.56-21.19Q48.22-20.99 47.80-20.77Q47.39-20.55 46.95-20.36Q46.51-20.16 46.07-20.16L46.07-20.16Q45.39-20.16 44.70-20.75L44.70-20.75Q44.60-21.14 44.63-21.48Q44.65-21.82 44.65-22.21L44.65-22.21Q44.65-22.60 44.51-23.04L44.51-23.04Q44.85-23.68 45.41-24.04Q45.97-24.41 46.58-24.73Q47.19-25.05 47.83-25.36Q48.46-25.68 48.90-26.22L48.90-26.22L49.19-26.22Q49.88-26.22 50.44-26.51Q51.00-26.80 51.73-26.75L51.73-26.75Q51.98-26.85 52.07-27.49L52.07-27.49L52.27-27.44Q53.34-27.44 54.17-28.17L54.17-28.17Q54.71-31.20 55.05-34.27Q55.39-37.35 55.39-40.43L55.39-40.43Q55.39-40.72 55.20-41.01L55.20-41.01Q55.10-41.40 55.10-41.75L55.10-41.75L55.10-42.48Q55.10-43.01 55.15-43.60Q55.20-44.19 55.39-44.77L55.39-44.77Q55.88-45.07 56.42-45.07L56.42-45.07Q57.06-45.07 57.67-44.89Q58.28-44.72 58.86-44.63L58.86-44.63Q59.30-44.19 59.52-43.65Q59.74-43.11 59.79-42.55Q59.84-41.99 59.81-41.43Q59.79-40.87 59.79-40.33L59.79-40.33Q59.79-39.25 60.03-38.23Q60.28-37.20 60.28-36.23L60.28-36.23Q60.28-35.98 60.11-35.86Q59.94-35.74 59.94-35.20L59.94-35.20Q59.94-34.67 60.03-34.08Q60.13-33.49 60.13-32.91L60.13-32.91Q60.13-32.22 59.94-31.49Q59.74-30.76 59.59-30.08L59.59-30.08Q62.52-30.32 65.60-30.81Q68.68-31.30 71.46-32.37L71.46-32.37Q71.51-32.47 71.51-32.66L71.51-32.66Q71.51-32.96 71.46-33.25Q71.41-33.54 71.41-33.88L71.41-33.88Q71.41-34.47 71.80-34.81L71.80-34.81Q71.56-36.18 71.46-37.55Q71.36-38.91 71.36-40.28L71.36-40.28L71.36-43.06Q71.36-44.43 71.31-45.80L71.31-45.80Q71.70-46.04 72.14-46.04L72.14-46.04Q72.68-46.04 73.14-45.77Q73.61-45.50 74.24-45.50L74.24-45.50Q74.68-45.50 74.98-45.65L74.98-45.65Q75.51-45.16 75.71-44.38Q75.90-43.60 76.05-42.77Q76.20-41.94 76.37-41.13Q76.54-40.33 77.07-39.84L77.07-39.84L77.12-39.69Q77.12-39.50 76.93-39.40Q76.73-39.30 76.73-39.01L76.73-39.01L76.73-38.82Q76.93-38.03 77.03-37.20Q77.12-36.37 77.20-35.52Q77.27-34.67 77.42-33.86Q77.56-33.05 77.95-32.37L77.95-32.37Q78.20-32.42 78.59-32.42L78.59-32.42Q79.56-32.42 80.13-31.76Q80.69-31.10 81.13-30.42ZM120.58-11.18L120.58-11.18Q120.43-10.50 119.97-10.08Q119.51-9.67 118.87-9.42Q118.24-9.18 117.58-9.10Q116.92-9.03 116.38-9.03L116.38-9.03Q116.14-9.03 115.92-9.05Q115.70-9.08 115.45-9.08L115.45-9.08Q115.21-9.08 115.21-8.83Q115.21-8.59 114.97-8.49L114.97-8.49Q114.72-8.59 114.48-8.64Q114.23-8.69 113.99-8.69L113.99-8.69Q113.65-8.69 113.33-8.64Q113.01-8.59 112.72-8.59L112.72-8.59Q112.33-8.59 112.16-8.69Q111.99-8.79 111.86-8.91Q111.74-9.03 111.62-9.18Q111.50-9.32 111.25-9.42L111.25-9.42Q110.91-9.57 110.69-9.47Q110.47-9.37 110.03-9.76L110.03-9.76Q109.45-10.25 109.03-10.96Q108.62-11.67 108.23-12.45Q107.84-13.23 107.40-14.01Q106.96-14.79 106.37-15.38L106.37-15.38L105.98-15.38Q105.10-15.38 104.76-14.65L104.76-14.65Q104.52-14.79 104.27-15.01Q104.03-15.23 103.73-15.38L103.73-15.38Q102.61-15.04 101.39-14.79Q100.17-14.55 98.95-14.55L98.95-14.55L98.27-14.55Q97.97-14.55 97.63-14.65L97.63-14.65Q97.14-14.45 96.75-14.18Q96.36-13.91 95.87-13.91L95.87-13.91Q95.58-13.91 95.19-14.11L95.19-14.11Q94.90-14.11 94.92-13.86Q94.95-13.62 94.60-13.62L94.60-13.62L94.16-13.62Q93.48-13.62 92.82-13.57Q92.16-13.52 91.48-13.52L91.48-13.52Q90.55-13.52 89.57-13.77L89.57-13.77Q89.33-13.62 89.04-13.62L89.04-13.62Q88.84-13.52 88.74-13.30Q88.65-13.08 88.55-12.91Q88.45-12.74 88.28-12.62Q88.11-12.50 87.82-12.55L87.82-12.55Q87.72-11.96 87.33-11.62Q86.94-11.28 86.94-10.59L86.94-10.59Q86.40-10.30 86.06-9.86Q85.72-9.42 85.38-8.93Q85.03-8.44 84.67-8.00Q84.30-7.57 83.76-7.32L83.76-7.32Q83.52-7.03 83.62-6.39L83.62-6.39Q83.08-5.95 82.30-5.61Q81.52-5.27 80.83-5.27L80.83-5.27Q79.42-5.27 78.88-6.78L78.88-6.78Q78.88-7.27 78.95-7.83Q79.03-8.40 79.17-8.91Q79.32-9.42 79.61-9.84Q79.91-10.25 80.44-10.45L80.44-10.45Q80.44-10.89 80.15-11.06Q79.86-11.23 79.91-11.67L79.91-11.67Q81.23-12.30 82.20-13.33Q83.18-14.35 83.98-15.50Q84.79-16.65 85.62-17.82Q86.45-18.99 87.48-19.92L87.48-19.92L87.48-20.94Q88.94-22.51 89.38-24.46L89.38-24.46Q89.92-24.56 90.09-24.95Q90.26-25.34 90.26-25.88L90.26-25.88Q90.50-25.88 90.58-26.10Q90.65-26.32 90.99-26.22L90.99-26.22Q91.43-27.39 91.97-28.37Q92.50-29.34 93.04-30.34Q93.58-31.34 93.99-32.42Q94.41-33.49 94.60-34.81L94.60-34.81Q95.29-34.86 95.36-35.47Q95.43-36.08 95.53-36.57L95.53-36.57Q96.26-37.25 96.63-38.18Q97.00-39.11 97.29-40.11Q97.58-41.11 97.95-42.11Q98.31-43.11 99.00-43.89L99.00-43.89L99.00-44.04Q99.00-44.28 98.80-44.36Q98.61-44.43 98.61-44.67L98.61-44.67Q98.66-44.72 98.66-44.77L98.66-44.77Q99.24-45.02 99.54-45.58Q99.83-46.14 100.41-46.38L100.41-46.38Q101.44-45.55 102.22-45.38Q103.00-45.21 104.27-45.11L104.27-45.11Q104.91-44.43 104.98-43.48Q105.05-42.53 105.30-41.60L105.30-41.60Q105.69-40.04 106.15-38.55Q106.62-37.06 106.86-35.50L106.86-35.50Q107.01-34.57 107.40-33.74Q107.79-32.91 107.93-32.03L107.93-32.03Q108.03-31.34 107.93-30.49Q107.84-29.64 108.13-29.00L108.13-29.00L108.47-28.22Q108.72-27.68 108.89-27.10Q109.06-26.51 109.20-25.92L109.20-25.92Q109.59-24.46 109.91-22.78Q110.23-21.09 110.91-19.72L110.91-19.72Q111.16-19.24 111.67-19.04Q112.18-18.84 112.82-18.77Q113.45-18.70 114.06-18.72Q114.67-18.75 115.11-18.75L115.11-18.75L115.60-18.75Q115.89-18.75 116.19-18.65L116.19-18.65Q116.38-18.26 116.38-17.97L116.38-17.97Q116.38-17.38 115.99-17.04Q115.60-16.70 115.60-16.26L115.60-16.26Q115.60-16.01 115.80-15.72L115.80-15.72Q115.60-15.77 115.21-15.77L115.21-15.77Q114.09-15.77 113.01-15.38L113.01-15.38Q113.40-14.55 114.06-13.99Q114.72-13.42 115.45-12.94L115.45-12.94Q115.94-13.33 116.48-13.33L116.48-13.33Q117.06-13.33 117.58-13.06Q118.09-12.79 118.68-12.79L118.68-12.79Q119.12-12.79 119.31-12.94L119.31-12.94Q119.70-12.50 119.95-12.03Q120.19-11.57 120.58-11.18ZM105.30-18.99L105.30-18.99Q105.20-19.82 104.98-20.19Q104.76-20.55 104.61-21.09L104.61-21.09Q104.42-21.77 104.35-22.56Q104.27-23.34 104.13-24.07L104.13-24.07Q103.78-25.73 103.37-27.39Q102.95-29.05 102.32-30.61L102.32-30.61Q102.51-30.91 102.51-31.15L102.51-31.15L102.51-31.30Q102.07-31.78 101.88-32.49Q101.68-33.20 101.51-33.91Q101.34-34.62 101.07-35.23Q100.81-35.84 100.22-36.23L100.22-36.23Q100.07-35.93 100.07-35.54L100.07-35.54Q100.07-35.20 100.15-34.91Q100.22-34.62 100.22-34.27L100.22-34.27Q99.73-34.03 99.51-33.52Q99.29-33.00 98.80-32.71L98.80-32.71Q98.41-31.15 97.68-29.76Q96.95-28.37 96.14-27.00Q95.34-25.63 94.60-24.24Q93.87-22.85 93.43-21.33L93.43-21.33Q92.80-20.90 92.58-20.21Q92.36-19.53 92.36-18.84L92.36-18.84Q92.80-18.60 93.36-18.58Q93.92-18.55 94.46-18.55Q94.99-18.55 95.48-18.45Q95.97-18.36 96.36-17.97L96.36-17.97Q97.00-18.16 97.75-18.23Q98.51-18.31 99.00-18.65L99.00-18.65Q99.98-18.31 101.10-18.31L101.10-18.31Q101.68-18.31 102.25-18.41Q102.81-18.50 103.34-18.65L103.34-18.65Q103.78-18.55 104.03-18.33Q104.27-18.11 104.76-18.16L104.76-18.16Q105.00-18.36 105.05-18.58Q105.10-18.80 105.30-18.99ZM146.02-41.21L146.02-41.21Q146.02-40.77 145.65-40.48Q145.29-40.18 145.29-40.04L145.29-40.04Q145.29-39.74 145.39-39.62Q145.48-39.50 145.48-39.35L145.48-39.35L145.48-39.11Q144.99-38.62 144.75-38.06Q144.51-37.50 144.36-36.89Q144.21-36.28 144.09-35.64Q143.97-35.01 143.77-34.42L143.77-34.42Q143.53-33.83 143.14-33.42Q142.75-33.00 142.50-32.47L142.50-32.47Q142.11-31.59 141.92-30.66Q141.72-29.73 141.09-28.95L141.09-28.95L141.09-28.71Q141.04-28.37 141.28-28.12L141.28-28.12Q140.36-26.90 139.82-25.22Q139.28-23.53 138.94-21.70Q138.60-19.87 138.35-18.04Q138.11-16.21 137.77-14.74L137.77-14.74Q138.01-13.67 138.52-12.72Q139.04-11.76 139.53-10.74L139.53-10.74Q140.50-10.50 141.41-10.06Q142.31-9.62 142.70-8.64L142.70-8.64Q142.60-7.66 142.06-7.13Q141.53-6.59 140.75-6.00L140.75-6.00Q140.21-6.20 139.87-6.32Q139.53-6.44 138.84-6.34L138.84-6.34Q137.91-7.08 137.11-7.52Q136.30-7.96 135.67-9.03L135.67-9.03Q135.57-9.18 135.38-9.18L135.38-9.18L134.94-9.18Q134.69-9.76 134.35-10.42Q134.01-11.08 133.67-11.79Q133.32-12.50 133.08-13.21Q132.84-13.91 132.84-14.50L132.84-14.50Q132.84-16.99 133.30-19.46Q133.76-21.92 133.76-24.46L133.76-24.46L133.76-24.95Q132.79-24.70 131.84-24.26Q130.88-23.83 129.91-23.58L129.91-23.58Q129.56-23.48 129.52-23.24Q129.47-23.00 129.22-22.85L129.22-22.85Q128.73-22.80 128.30-22.78Q127.86-22.75 127.47-22.75L127.47-22.75Q126.64-22.75 125.73-22.82Q124.83-22.90 123.95-23.14Q123.07-23.39 122.31-23.83Q121.56-24.26 120.97-24.95L120.97-24.95Q120.87-24.90 120.73-24.85Q120.58-24.80 120.43-24.80L120.43-24.80Q120.29-24.80 120.14-24.85Q119.99-24.90 119.90-24.95L119.90-24.95Q119.51-25.49 119.26-26.12L119.26-26.12L118.77-27.39Q118.53-28.02 118.24-28.61Q117.94-29.20 117.46-29.68L117.46-29.68Q117.31-30.56 117.31-31.39L117.31-31.39Q117.31-32.27 117.43-33.10Q117.55-33.93 117.80-34.76L117.80-34.76Q117.60-35.35 117.53-35.98Q117.46-36.62 117.46-37.25L117.46-37.25Q117.46-37.99 117.60-38.77Q117.75-39.55 118.09-40.21Q118.43-40.87 119.04-41.31Q119.65-41.75 120.53-41.75L120.53-41.75Q121.51-41.75 122.34-41.23Q123.17-40.72 123.95-40.18L123.95-40.18Q124.05-39.60 124.10-39.04Q124.14-38.47 124.14-37.84L124.14-37.84Q124.14-36.67 124.02-35.47Q123.90-34.27 123.90-33.05L123.90-33.05Q123.90-31.78 124.22-30.69Q124.54-29.59 125.37-28.61L125.37-28.61L125.56-28.61Q125.95-28.66 126.24-28.46Q126.54-28.27 126.93-28.27L126.93-28.27Q127.27-28.27 127.47-28.54Q127.66-28.81 127.95-28.81L127.95-28.81Q128.25-28.81 128.39-28.71Q128.54-28.61 128.64-28.61L128.64-28.61Q129.17-28.61 129.86-29.00Q130.54-29.39 130.74-29.88L130.74-29.88Q130.93-29.73 131.23-29.73L131.23-29.73Q131.62-29.73 131.96-29.98Q132.30-30.22 132.84-30.22L132.84-30.22Q133.13-30.22 133.06-30.59Q132.98-30.95 133.23-31.05L133.23-31.05Q133.81-31.30 134.52-31.76Q135.23-32.22 135.67-32.32L135.67-32.32Q135.91-32.96 136.28-33.52Q136.64-34.08 137.04-34.57L137.04-34.57Q137.18-35.69 137.62-36.72Q138.06-37.74 138.55-38.77Q139.04-39.79 139.48-40.82Q139.92-41.84 140.06-42.97L140.06-42.97Q140.60-43.50 140.92-44.14Q141.23-44.77 141.48-45.41L141.48-45.41Q141.97-45.55 142.70-45.58Q143.43-45.60 143.97-45.60L143.97-45.60L144.80-45.60Q144.95-45.31 145.19-45.07L145.19-45.07L145.68-44.58Q145.24-43.89 145.24-43.21L145.24-43.21Q145.24-42.67 145.48-42.16Q145.73-41.65 146.02-41.21ZM179.03-39.69L179.03-39.69Q178.93-39.11 178.76-38.69Q178.59-38.28 178.69-37.59L178.69-37.59Q178.20-37.55 177.93-37.28Q177.66-37.01 177.49-36.67Q177.32-36.33 177.15-35.96Q176.98-35.59 176.73-35.30L176.73-35.30Q177.12-33.54 177.17-31.74Q177.22-29.93 177.42-28.17L177.42-28.17Q177.66-25.92 178.17-23.75Q178.69-21.58 178.69-19.33L178.69-19.33Q178.69-18.65 178.66-18.06Q178.64-17.48 178.64-16.84L178.64-16.84Q178.64-16.45 178.66-16.04Q178.69-15.62 178.69-15.23L178.69-15.23Q178.69-13.82 178.32-12.40Q177.95-10.98 177.76-9.57L177.76-9.57Q177.17-9.03 176.76-8.40Q176.34-7.76 175.90-7.22Q175.46-6.69 174.88-6.27Q174.29-5.86 173.41-5.71L173.41-5.71Q173.27-5.22 172.85-4.98Q172.44-4.73 172.14-4.29L172.14-4.29L172.05-4.29Q170.82-4.29 169.95-4.64Q169.07-4.98 168.31-5.42Q167.55-5.86 166.77-6.34Q165.99-6.83 164.97-7.13L164.97-7.13Q163.60-8.25 162.48-9.59Q161.35-10.93 159.94-12.01L159.94-12.01Q159.59-12.99 159.03-13.62Q158.47-14.25 157.93-15.08L157.93-15.08Q157.69-15.43 157.57-15.72Q157.45-16.01 157.25-16.40L157.25-16.40Q157.10-16.79 156.79-16.94Q156.47-17.09 156.23-17.28L156.23-17.28Q155.83-18.80 155.10-20.07Q154.37-21.33 153.39-22.51L153.39-22.51Q153.10-21.97 152.93-21.36Q152.76-20.75 152.61-20.14Q152.47-19.53 152.25-18.92Q152.03-18.31 151.68-17.82L151.68-17.82L151.68-17.67Q151.68-17.43 151.88-17.38Q152.07-17.33 152.07-17.09L152.07-17.09Q152.07-17.04 152.05-16.99Q152.03-16.94 152.03-16.89L152.03-16.89Q151.78-16.70 151.66-16.40Q151.54-16.11 151.15-16.06L151.15-16.06Q151.20-15.82 151.20-15.57L151.20-15.57L151.20-15.13Q151.20-13.72 150.88-12.30Q150.56-10.89 150.56-9.42L150.56-9.42L150.56-8.79Q150.56-8.44 150.61-8.15L150.61-8.15Q150.71-7.86 150.90-7.57Q151.10-7.27 151.10-7.03L151.10-7.03Q151.10-6.69 150.81-6.39L150.81-6.39Q151.15-6.15 151.59-5.86Q152.03-5.56 152.39-5.20Q152.76-4.83 153.00-4.42Q153.25-4.00 153.25-3.51L153.25-3.51Q153.25-2.68 152.71-2.34Q152.17-2.00 151.42-1.80Q150.66-1.61 149.85-1.44Q149.05-1.27 148.51-0.83L148.51-0.83L148.36-0.83Q147.78-0.83 147.48-1.17Q147.19-1.51 146.61-1.51L146.61-1.51Q145.68-3.02 145.34-4.90Q144.99-6.78 144.99-8.49L144.99-8.49Q144.99-10.59 145.36-12.69Q145.73-14.79 146.24-16.84Q146.75-18.89 147.36-20.92Q147.97-22.95 148.51-25.00L148.51-25.00L148.56-25.14Q148.56-25.39 148.44-25.49Q148.31-25.58 148.31-25.78L148.31-25.78Q148.31-25.88 148.36-25.88L148.36-25.88Q148.51-26.36 148.68-26.80Q148.85-27.24 148.95-27.78L148.95-27.78Q149.24-29.15 149.36-30.59Q149.49-32.03 149.51-33.44Q149.54-34.86 149.61-36.30Q149.68-37.74 149.93-39.16L149.93-39.16Q150.32-39.55 150.66-39.99Q151.00-40.43 151.54-40.77L151.54-40.77Q152.51-40.72 153.49-40.48Q154.47-40.23 155.35-39.69L155.35-39.69Q155.93-37.59 156.15-35.50Q156.37-33.40 156.91-31.30L156.91-31.30L156.91-31.15Q156.91-30.91 157.18-30.93Q157.45-30.95 157.59-30.76L157.59-30.76Q157.49-30.61 157.47-30.42Q157.45-30.22 157.45-30.03L157.45-30.03L157.45-29.20Q157.54-28.81 157.69-28.37Q157.84-27.93 158.32-27.83L158.32-27.83Q158.57-26.27 159.06-24.95Q159.55-23.63 160.18-22.41Q160.81-21.19 161.55-19.99Q162.28-18.80 163.06-17.48L163.06-17.48Q164.28-16.55 165.16-15.35Q166.04-14.16 166.94-13.06Q167.85-11.96 168.99-11.13Q170.14-10.30 172.00-10.10L172.00-10.10Q172.24-10.30 172.34-10.64L172.34-10.64L172.58-11.33Q172.73-11.67 172.90-11.94Q173.07-12.20 173.41-12.35L173.41-12.35Q173.51-13.72 173.63-15.13Q173.75-16.55 174.24-17.82L174.24-17.82Q174.00-18.26 174.00-18.89L174.00-18.89Q174.00-19.38 174.07-19.82Q174.14-20.26 174.14-20.70L174.14-20.70Q174.14-21.63 173.75-22.21L173.75-22.21Q173.75-22.56 173.80-22.92Q173.85-23.29 174.10-23.63L174.10-23.63Q173.71-24.61 173.49-25.68Q173.27-26.75 173.27-27.88L173.27-27.88Q173.27-28.51 173.41-29.20L173.41-29.20Q173.12-29.93 173.02-30.91L173.02-30.91L172.83-32.91Q172.73-33.93 172.53-34.81Q172.34-35.69 171.80-36.23L171.80-36.23Q172.09-36.67 172.09-37.25L172.09-37.25Q172.09-38.23 171.80-39.11Q171.51-39.99 171.51-40.96L171.51-40.96Q171.51-41.65 171.80-42.33L171.80-42.33Q172.88-42.28 173.93-42.11Q174.98-41.94 176.00-41.94L176.00-41.94Q176.29-41.55 176.68-41.31Q177.07-41.06 177.51-40.84Q177.95-40.62 178.37-40.38Q178.78-40.13 179.03-39.69ZM214.82-38.67L214.82-38.67L214.82-38.47Q214.48-38.38 214.48-37.99L214.48-37.99Q213.94-37.74 213.35-37.62Q212.77-37.50 212.23-37.25L212.23-37.25Q211.69-37.30 211.13-37.33Q210.57-37.35 210.03-37.35L210.03-37.35Q208.57-37.35 207.10-37.25Q205.64-37.16 204.17-37.25L204.17-37.25Q203.49-36.86 202.68-36.64Q201.88-36.42 201.15-36.42L201.15-36.42Q200.56-36.42 200.12-36.57L200.12-36.57Q198.95-35.98 197.56-35.59Q196.17-35.20 194.75-34.84Q193.33-34.47 192.04-34.01Q190.75-33.54 189.77-32.71L189.77-32.71Q189.67-32.03 189.62-31.37Q189.57-30.71 189.57-30.08L189.57-30.08Q189.57-29.39 189.65-28.81Q189.72-28.22 189.97-27.63L189.97-27.63Q190.21-27.54 190.53-27.49Q190.84-27.44 191.09-27.44L191.09-27.44Q191.33-27.44 191.58-27.51Q191.82-27.58 191.92-27.83L191.92-27.83Q192.65-27.93 193.38-27.90Q194.12-27.88 194.85-27.88L194.85-27.88Q195.58-27.88 196.29-27.93Q197.00-27.98 197.68-28.17L197.68-28.17Q198.46-28.37 199.22-28.42Q199.98-28.46 200.71-28.51Q201.44-28.56 202.22-28.68Q203.00-28.81 203.83-29.20L203.83-29.20Q204.47-28.95 205.13-28.95Q205.79-28.95 206.42-28.85L206.42-28.85Q206.76-28.61 206.98-28.32Q207.20-28.02 207.20-27.63L207.20-27.63Q207.20-26.95 206.71-26.27Q206.23-25.58 205.93-25.00L205.93-25.00L205.39-25.00Q204.22-25.00 203.12-24.68Q202.03-24.36 200.93-23.95Q199.83-23.53 198.73-23.21Q197.63-22.90 196.46-22.90L196.46-22.90Q196.26-22.90 196.24-22.68Q196.22-22.46 196.12-22.36L196.12-22.36Q195.87-22.41 195.39-22.41L195.39-22.41Q194.26-22.41 193.24-22.17Q192.21-21.92 191.14-21.92L191.14-21.92Q190.84-21.92 190.55-21.95Q190.26-21.97 189.97-22.02L189.97-22.02Q189.72-21.63 189.33-21.51Q188.94-21.38 188.60-21.09L188.60-21.09Q188.45-20.65 188.43-20.02Q188.40-19.38 188.38-18.72Q188.35-18.06 188.26-17.48Q188.16-16.89 187.87-16.55L187.87-16.55Q187.91-16.31 188.26-16.38Q188.60-16.45 188.60-16.06L188.60-16.06Q188.60-15.62 188.50-15.13Q188.40-14.65 188.40-14.16L188.40-14.16Q188.40-13.23 188.62-12.13Q188.84-11.03 189.31-10.10Q189.77-9.18 190.55-8.57Q191.33-7.96 192.50-7.96L192.50-7.96Q193.29-7.96 193.97-8.25Q194.65-8.54 195.09-9.23L195.09-9.23L195.34-9.27Q195.53-9.27 195.70-9.23Q195.87-9.18 196.07-9.18L196.07-9.18Q196.36-9.18 196.83-9.54Q197.29-9.91 197.85-10.40Q198.41-10.89 199.00-11.35Q199.58-11.81 200.12-12.01L200.12-12.01Q200.46-12.69 200.78-13.38Q201.10-14.06 201.73-14.45L201.73-14.45L201.73-15.87Q202.22-16.40 202.78-16.84Q203.34-17.28 203.64-17.97L203.64-17.97Q203.88-17.87 204.10-17.82Q204.32-17.77 204.56-17.77L204.56-17.77Q204.81-17.77 205.08-17.82Q205.35-17.87 205.59-17.97L205.59-17.97Q205.98-17.43 206.20-16.77Q206.42-16.11 206.76-15.52L206.76-15.52Q206.32-14.65 205.74-13.42Q205.15-12.20 204.47-10.98Q203.78-9.76 203.03-8.66Q202.27-7.57 201.54-6.98L201.54-6.98Q201.39-6.83 200.90-6.64L200.90-6.64Q200.37-6.25 199.93-5.88Q199.49-5.51 199.10-5.03L199.10-5.03Q197.68-4.59 196.39-3.85Q195.09-3.12 193.82-2.44L193.82-2.44Q193.24-2.58 192.55-2.58L192.55-2.58Q191.97-2.58 191.38-2.51Q190.80-2.44 190.11-2.44L190.11-2.44Q189.92-2.68 189.55-2.76Q189.18-2.83 189.28-3.27L189.28-3.27Q187.62-3.37 186.60-4.17Q185.57-4.98 184.86-6.15Q184.15-7.32 183.72-8.69Q183.28-10.06 182.79-11.33L182.79-11.33L182.79-11.47Q182.79-11.72 182.98-11.76Q183.18-11.81 183.18-12.06L183.18-12.06Q183.18-12.16 183.13-12.20L183.13-12.20Q182.98-12.74 182.89-13.13Q182.79-13.52 182.79-14.06L182.79-14.06Q182.79-14.84 182.89-15.60Q182.98-16.35 182.98-17.14L182.98-17.14Q182.98-17.92 182.79-18.50L182.79-18.50Q182.98-18.75 183.10-19.16Q183.23-19.58 183.28-20.02Q183.32-20.46 183.35-20.90Q183.37-21.33 183.47-21.68L183.47-21.68Q183.28-22.21 183.13-22.63Q182.98-23.04 182.98-23.63L182.98-23.63L182.98-23.97Q183.47-24.80 183.81-25.68Q184.15-26.56 184.55-27.49L184.55-27.49L184.55-27.63Q184.55-29.05 184.45-30.47Q184.35-31.88 184.35-33.30L184.35-33.30L184.35-34.23Q184.35-34.71 184.40-35.15L184.40-35.15Q184.79-35.35 184.98-35.69Q185.18-36.03 185.57-36.23L185.57-36.23L187.18-36.23L187.48-36.72Q187.62-36.96 187.67-37.25L187.67-37.25Q188.21-37.40 188.72-37.67Q189.23-37.94 189.67-38.23L189.67-38.23Q190.36-38.62 190.92-38.94Q191.48-39.25 192.04-39.47Q192.60-39.69 193.24-39.84Q193.87-39.99 194.70-40.08L194.70-40.08Q195.09-40.08 195.21-40.23Q195.34-40.38 195.58-40.57L195.58-40.57Q196.17-40.48 196.75-40.40Q197.34-40.33 197.92-40.33L197.92-40.33Q199.10-40.33 200.12-40.77L200.12-40.77Q201.59-40.77 203.03-40.82Q204.47-40.87 205.93-40.87L205.93-40.87Q207.20-40.87 208.47-40.77Q209.74-40.67 210.96-40.43L210.96-40.43Q211.40-40.57 211.94-40.57L211.94-40.57Q212.52-40.57 213.13-40.45Q213.74-40.33 214.33-40.43L214.33-40.43Q214.38-39.89 214.60-39.52Q214.82-39.16 214.82-38.67Z"/></g></g></svg>