<svg xmlns="http://www.w3.org/2000/svg" xmlns:xlink="http://www.w3.org/1999/xlink" width="100" zoomAndPan="magnify" viewBox="0 0 375 374.999991" height="100" preserveAspectRatio="xMidYMid meet" version="1.0"><defs><clipPath id="id1"><path d="M 81 37.5 L 294 37.5 L 294 337.5 L 81 337.5 Z M 81 37.5 " clip-rule="nonzero"/></clipPath><clipPath id="id2"><path d="M 99.898438 143.28125 L 274.648438 143.28125 L 274.648438 182.992188 L 99.898438 182.992188 Z M 99.898438 143.28125 " clip-rule="nonzero"/></clipPath></defs><rect x="-37.5" width="450" fill="#ffffff" y="-37.499999" height="449.999989" fill-opacity="1"/><rect x="-37.5" width="450" fill="#232946" y="-37.499999" height="449.999989" fill-opacity="1"/><rect x="-37.5" width="450" fill="#ffffff" y="-37.499999" height="449.999989" fill-opacity="1"/><rect x="-37.5" width="450" fill="#232946" y="-37.499999" height="449.999989" fill-opacity="1"/><path fill="#fffffe" d="M 137.605469 268.328125 C 137.644531 278.484375 137.675781 288.078125 132.984375 299.222656 C 130.65625 304.667969 128.480469 310.003906 126.378906 315.164062 C 124.5 319.765625 122.570312 324.503906 120.523438 329.339844 C 127.753906 330.421875 154.15625 334.019531 187.503906 334.34375 C 221.46875 334.671875 247.421875 330.617188 254.46875 329.390625 C 252.414062 324.546875 250.480469 319.804688 248.605469 315.199219 C 246.496094 310.027344 244.316406 304.679688 241.980469 299.234375 C 237.28125 288.078125 237.316406 278.484375 237.355469 268.328125 C 237.355469 268.070312 237.355469 267.8125 237.355469 267.554688 C 225.257812 279.535156 209.785156 286.101562 192.652344 286.101562 C 172.984375 286.101562 153.210938 277.496094 137.613281 262.796875 C 137.59375 264.679688 137.601562 266.519531 137.605469 268.328125 " fill-opacity="1" fill-rule="nonzero"/><path fill="#fffffe" d="M 119.84375 114.964844 C 119.730469 115.742188 119.058594 116.304688 118.296875 116.304688 C 118.21875 116.304688 118.144531 116.300781 118.066406 116.289062 C 117.210938 116.160156 116.617188 115.367188 116.746094 114.511719 C 122.121094 77.722656 141.746094 66.453125 142.578125 65.992188 C 143.332031 65.574219 144.285156 65.84375 144.707031 66.601562 C 145.125 67.355469 144.851562 68.308594 144.097656 68.726562 C 143.910156 68.835938 124.980469 79.828125 119.84375 114.964844 Z M 283.769531 154.511719 C 281.511719 154.105469 278.664062 156.148438 275.84375 160.183594 C 275.441406 160.761719 274.703125 160.996094 274.039062 160.765625 C 273.378906 160.535156 272.949219 159.890625 272.996094 159.1875 C 274.234375 140.269531 272.574219 123.203125 268.0625 108.460938 C 255.03125 65.34375 226.734375 40.621094 190.417969 40.621094 C 182.566406 40.621094 174.308594 41.785156 165.878906 44.085938 C 106.605469 60.042969 101.660156 103.589844 101.574219 154.648438 C 101.832031 155.832031 102.054688 156.996094 102.273438 158.164062 C 102.382812 158.753906 102.492188 159.34375 102.609375 159.933594 C 102.753906 160.671875 102.355469 161.40625 101.65625 161.6875 C 100.960938 161.96875 100.164062 161.714844 99.757812 161.085938 C 96.761719 156.441406 93.695312 154.0625 91.1875 154.511719 C 85.945312 155.460938 82.425781 169.355469 85.753906 187.773438 C 89.019531 205.875 96.660156 217.078125 101.871094 217.078125 C 102.082031 217.078125 102.296875 217.058594 102.5 217.019531 C 104.898438 216.589844 106.949219 213.355469 108.136719 208.144531 C 108.300781 207.433594 108.929688 206.929688 109.65625 206.925781 C 109.660156 206.925781 109.660156 206.925781 109.664062 206.925781 C 110.386719 206.925781 111.019531 207.421875 111.1875 208.128906 C 114.554688 222.199219 119.222656 233.59375 125.875 243.976562 C 141.710938 268.023438 167.300781 282.96875 192.652344 282.96875 C 217.136719 282.96875 237.308594 269.585938 249.460938 245.289062 C 255.097656 233.988281 259.953125 221.578125 263.886719 208.40625 C 264.085938 207.742188 264.695312 207.285156 265.386719 207.285156 C 265.398438 207.285156 265.414062 207.285156 265.425781 207.289062 C 266.136719 207.308594 266.742188 207.796875 266.90625 208.484375 C 268.117188 213.492188 270.140625 216.601562 272.457031 217.019531 C 272.664062 217.058594 272.878906 217.078125 273.085938 217.078125 C 278.296875 217.078125 285.941406 205.875 289.214844 187.773438 C 292.539062 169.355469 289.011719 155.460938 283.769531 154.511719 " fill-opacity="1" fill-rule="nonzero"/><path fill="#fffffe" d="M 144.101562 68.726562 C 144.855469 68.308594 145.125 67.355469 144.707031 66.601562 C 144.289062 65.84375 143.332031 65.570312 142.578125 65.992188 C 141.746094 66.453125 122.125 77.722656 116.746094 114.511719 C 116.621094 115.367188 117.210938 116.160156 118.066406 116.285156 C 118.144531 116.296875 118.21875 116.300781 118.296875 116.300781 C 119.058594 116.300781 119.730469 115.742188 119.84375 114.964844 C 124.980469 79.828125 143.910156 68.835938 144.101562 68.726562 " fill-opacity="1" fill-rule="nonzero"/><g clip-path="url(#id1)"><path fill="#2f364e" d="M 289.214844 187.773438 C 285.9375 205.875 278.296875 217.078125 273.089844 217.078125 C 272.875 217.078125 272.664062 217.058594 272.457031 217.019531 C 270.136719 216.601562 268.113281 213.492188 266.90625 208.484375 C 266.742188 207.796875 266.132812 207.308594 265.425781 207.289062 C 265.414062 207.285156 265.398438 207.285156 265.386719 207.285156 C 264.695312 207.285156 264.085938 207.742188 263.886719 208.40625 C 259.953125 221.578125 255.101562 233.988281 249.457031 245.292969 C 237.308594 269.585938 217.136719 282.96875 192.652344 282.96875 C 167.300781 282.96875 141.710938 268.023438 125.875 243.976562 C 119.222656 233.59375 114.554688 222.199219 111.1875 208.128906 C 111.019531 207.421875 110.386719 206.925781 109.664062 206.925781 C 109.660156 206.925781 109.660156 206.925781 109.65625 206.925781 C 108.929688 206.929688 108.300781 207.4375 108.136719 208.144531 C 106.949219 213.355469 104.894531 216.59375 102.5 217.019531 C 102.296875 217.058594 102.082031 217.078125 101.871094 217.078125 C 96.660156 217.078125 89.019531 205.875 85.753906 187.773438 C 82.425781 169.355469 85.945312 155.460938 91.1875 154.511719 C 93.695312 154.0625 96.761719 156.441406 99.753906 161.085938 C 100.164062 161.714844 100.960938 161.96875 101.65625 161.6875 C 102.355469 161.40625 102.753906 160.671875 102.609375 159.933594 C 102.492188 159.34375 102.382812 158.753906 102.273438 158.164062 C 102.050781 156.996094 101.832031 155.832031 101.574219 154.652344 C 101.660156 103.589844 106.605469 60.046875 165.878906 44.085938 C 174.308594 41.785156 182.566406 40.621094 190.417969 40.621094 C 226.730469 40.621094 255.03125 65.34375 268.0625 108.460938 C 272.574219 123.207031 274.234375 140.269531 272.996094 159.1875 C 272.949219 159.890625 273.375 160.535156 274.039062 160.765625 C 274.699219 160.996094 275.441406 160.761719 275.839844 160.1875 C 278.660156 156.148438 281.511719 154.105469 283.769531 154.511719 C 289.011719 155.460938 292.539062 169.355469 289.214844 187.773438 Z M 241.980469 299.234375 C 244.316406 304.679688 246.496094 310.027344 248.605469 315.199219 C 250.480469 319.804688 252.414062 324.546875 254.46875 329.390625 C 247.421875 330.617188 221.46875 334.671875 187.5 334.34375 C 154.15625 334.019531 127.753906 330.421875 120.523438 329.339844 C 122.570312 324.503906 124.5 319.765625 126.378906 315.164062 C 128.480469 310.003906 130.65625 304.667969 132.984375 299.222656 C 137.675781 288.078125 137.644531 278.484375 137.605469 268.328125 C 137.601562 266.519531 137.59375 264.679688 137.613281 262.796875 C 153.210938 277.496094 172.984375 286.101562 192.652344 286.101562 C 209.785156 286.101562 225.257812 279.535156 237.355469 267.554688 C 237.355469 267.8125 237.355469 268.070312 237.355469 268.328125 C 237.316406 278.484375 237.28125 288.078125 241.980469 299.234375 Z M 284.328125 151.429688 C 281.769531 150.964844 279.035156 152.09375 276.371094 154.683594 C 277.085938 137.25 275.300781 121.414062 271.058594 107.550781 C 257.601562 63.027344 228.210938 37.488281 190.417969 37.488281 C 182.285156 37.488281 173.753906 38.691406 165.0625 41.0625 C 103.714844 57.582031 98.542969 102.1875 98.441406 154.492188 C 95.84375 152.03125 93.167969 150.972656 90.628906 151.429688 C 82.6875 152.871094 79.191406 169.078125 82.675781 188.328125 C 85.949219 206.503906 94.203125 220.210938 101.871094 220.210938 C 102.269531 220.210938 102.667969 220.171875 103.058594 220.101562 C 105.71875 219.625 107.894531 217.570312 109.484375 214.082031 C 112.808594 226.15625 117.238281 236.300781 123.25 245.683594 C 126.613281 250.789062 130.410156 255.492188 134.535156 259.753906 C 134.457031 262.730469 134.464844 265.570312 134.476562 268.339844 C 134.511719 278.59375 134.542969 287.453125 130.101562 298 C 127.765625 303.460938 125.585938 308.808594 123.476562 313.984375 C 121.367188 319.15625 119.1875 324.507812 116.855469 329.960938 C 116.664062 330.402344 116.6875 330.90625 116.917969 331.328125 C 117.148438 331.75 117.558594 332.042969 118.035156 332.121094 C 118.332031 332.171875 148.105469 337.09375 187.46875 337.472656 C 188.796875 337.484375 190.109375 337.492188 191.40625 337.492188 C 229.507812 337.492188 256.707031 332.167969 256.984375 332.113281 C 257.445312 332.019531 257.84375 331.722656 258.0625 331.304688 C 258.285156 330.890625 258.304688 330.394531 258.117188 329.960938 C 255.785156 324.519531 253.605469 319.183594 251.503906 314.019531 C 249.390625 308.832031 247.207031 303.46875 244.863281 298.007812 C 240.414062 287.453125 240.445312 278.59375 240.484375 268.335938 C 240.488281 266.996094 240.492188 265.628906 240.484375 264.25 C 244.980469 259.1875 248.945312 253.316406 252.257812 246.691406 C 257.308594 236.570312 261.734375 225.589844 265.441406 213.976562 C 267.039062 217.527344 269.230469 219.621094 271.898438 220.101562 C 272.289062 220.171875 272.6875 220.210938 273.089844 220.210938 C 280.75 220.210938 289.007812 206.503906 292.296875 188.328125 C 295.828125 168.757812 292.398438 152.894531 284.328125 151.429688 " fill-opacity="1" fill-rule="nonzero"/></g><g clip-path="url(#id2)"><path fill="#232946" d="M 99.898438 143.28125 L 99.898438 159.164062 L 107.84375 159.164062 L 107.84375 167.105469 L 115.785156 167.105469 L 115.785156 175.050781 L 123.726562 175.050781 L 123.726562 182.992188 L 163.445312 182.992188 L 163.445312 175.050781 L 171.386719 175.050781 L 171.386719 167.105469 L 179.328125 167.105469 L 179.328125 159.164062 L 195.214844 159.164062 L 195.214844 167.105469 L 203.160156 167.105469 L 203.160156 175.050781 L 211.101562 175.050781 L 211.101562 182.992188 L 250.820312 182.992188 L 250.820312 175.050781 L 258.761719 175.050781 L 258.761719 167.105469 L 266.707031 167.105469 L 266.707031 159.164062 L 274.648438 159.164062 L 274.648438 143.28125 L 99.898438 143.28125 " fill-opacity="1" fill-rule="nonzero"/></g><path fill="#fffffe" d="M 131.671875 167.105469 L 123.726562 167.105469 L 123.726562 159.164062 L 131.671875 159.164062 L 131.671875 167.105469 " fill-opacity="1" fill-rule="nonzero"/><path fill="#fffffe" d="M 139.613281 175.050781 L 131.671875 175.050781 L 131.671875 167.105469 L 139.613281 167.105469 L 139.613281 175.050781 " fill-opacity="1" fill-rule="nonzero"/><path fill="#fffffe" d="M 123.726562 159.164062 L 115.785156 159.164062 L 115.785156 151.222656 L 123.726562 151.222656 L 123.726562 159.164062 " fill-opacity="1" fill-rule="nonzero"/><path fill="#fffffe" d="M 147.558594 167.105469 L 139.613281 167.105469 L 139.613281 159.164062 L 147.558594 159.164062 L 147.558594 167.105469 " fill-opacity="1" fill-rule="nonzero"/><path fill="#fffffe" d="M 155.5 175.050781 L 147.558594 175.050781 L 147.558594 167.105469 L 155.5 167.105469 L 155.5 175.050781 " fill-opacity="1" fill-rule="nonzero"/><path fill="#fffffe" d="M 139.613281 159.164062 L 131.671875 159.164062 L 131.671875 151.222656 L 139.613281 151.222656 L 139.613281 159.164062 " fill-opacity="1" fill-rule="nonzero"/><path fill="#fffffe" d="M 219.046875 167.105469 L 211.101562 167.105469 L 211.101562 159.164062 L 219.046875 159.164062 L 219.046875 167.105469 " fill-opacity="1" fill-rule="nonzero"/><path fill="#fffffe" d="M 226.988281 175.050781 L 219.046875 175.050781 L 219.046875 167.105469 L 226.988281 167.105469 L 226.988281 175.050781 " fill-opacity="1" fill-rule="nonzero"/><path fill="#fffffe" d="M 211.101562 159.164062 L 203.160156 159.164062 L 203.160156 151.222656 L 211.101562 151.222656 L 211.101562 159.164062 " fill-opacity="1" fill-rule="nonzero"/><path fill="#fffffe" d="M 234.933594 167.105469 L 226.988281 167.105469 L 226.988281 159.164062 L 234.933594 159.164062 L 234.933594 167.105469 " fill-opacity="1" fill-rule="nonzero"/><path fill="#fffffe" d="M 242.875 175.050781 L 234.933594 175.050781 L 234.933594 167.105469 L 242.875 167.105469 L 242.875 175.050781 " fill-opacity="1" fill-rule="nonzero"/><path fill="#fffffe" d="M 226.988281 159.164062 L 219.046875 159.164062 L 219.046875 151.222656 L 226.988281 151.222656 L 226.988281 159.164062 " fill-opacity="1" fill-rule="nonzero"/></svg>